<svg width="309" height="300" viewBox="0 0 309 300" fill="none" xmlns="http://www.w3.org/2000/svg">
<rect y="26" width="308.758" height="273.979" rx="20" fill="#E4F3F4"/>
<rect x="20" y="46" width="268.758" height="169.979" rx="9.67976" fill="white"/>
<path d="M40.3815 72.9033C40.3815 72.2999 40.5176 71.7587 40.7897 71.2795C41.0618 70.7944 41.4315 70.4159 41.8988 70.1437C42.3721 69.8716 42.8956 69.7356 43.4694 69.7356C44.1437 69.7356 44.7323 69.8983 45.2351 70.2236C45.7379 70.549 46.1047 71.0104 46.3354 71.6078H45.3682C45.1967 71.2351 44.9482 70.9482 44.6229 70.7471C44.3035 70.546 43.919 70.4454 43.4694 70.4454C43.0376 70.4454 42.6501 70.546 42.307 70.7471C41.9639 70.9482 41.6948 71.2351 41.4996 71.6078C41.3043 71.9746 41.2067 72.4064 41.2067 72.9033C41.2067 73.3943 41.3043 73.8261 41.4996 74.1988C41.6948 74.5655 41.9639 74.8495 42.307 75.0506C42.6501 75.2517 43.0376 75.3523 43.4694 75.3523C43.919 75.3523 44.3035 75.2547 44.6229 75.0595C44.9482 74.8583 45.1967 74.5714 45.3682 74.1988H46.3354C46.1047 74.7903 45.7379 75.2487 45.2351 75.5741C44.7323 75.8935 44.1437 76.0532 43.4694 76.0532C42.8956 76.0532 42.3721 75.9201 41.8988 75.6539C41.4315 75.3818 41.0618 75.0062 40.7897 74.5271C40.5176 74.0479 40.3815 73.5067 40.3815 72.9033ZM49.3031 76.0799C48.8476 76.0799 48.4335 75.9763 48.0609 75.7693C47.6941 75.5623 47.4043 75.2694 47.1913 74.8909C46.9843 74.5064 46.8808 74.0627 46.8808 73.5599C46.8808 73.063 46.9872 72.6253 47.2002 72.2467C47.4191 71.8622 47.7148 71.5694 48.0875 71.3682C48.4602 71.1612 48.8772 71.0577 49.3386 71.0577C49.8 71.0577 50.217 71.1612 50.5897 71.3682C50.9624 71.5694 51.2552 71.8592 51.4682 72.2378C51.687 72.6164 51.7965 73.0571 51.7965 73.5599C51.7965 74.0627 51.6841 74.5064 51.4593 74.8909C51.2404 75.2694 50.9417 75.5623 50.5631 75.7693C50.1845 75.9763 49.7645 76.0799 49.3031 76.0799ZM49.3031 75.37C49.593 75.37 49.8651 75.302 50.1194 75.1659C50.3738 75.0299 50.5779 74.8258 50.7317 74.5537C50.8914 74.2816 50.9713 73.9503 50.9713 73.5599C50.9713 73.1695 50.8944 72.8382 50.7406 72.5661C50.5868 72.294 50.3856 72.0929 50.1372 71.9627C49.8887 71.8267 49.6196 71.7587 49.3297 71.7587C49.034 71.7587 48.7619 71.8267 48.5134 71.9627C48.2709 72.0929 48.0757 72.294 47.9278 72.5661C47.7799 72.8382 47.706 73.1695 47.706 73.5599C47.706 73.9562 47.7769 74.2904 47.9189 74.5626C48.0668 74.8347 48.262 75.0387 48.5045 75.1748C48.7471 75.3049 49.0133 75.37 49.3031 75.37ZM54.8723 71.0488C55.4638 71.0488 55.943 71.2292 56.3097 71.5901C56.6765 71.945 56.8599 72.4596 56.8599 73.134V76H56.0613V73.2493C56.0613 72.7643 55.94 72.3946 55.6975 72.1402C55.455 71.8799 55.1237 71.7498 54.7037 71.7498C54.2778 71.7498 53.9377 71.8829 53.6833 72.1491C53.4349 72.4153 53.3106 72.8027 53.3106 73.3114V76H52.5032V71.1375H53.3106V71.8296C53.4704 71.5812 53.6863 71.3889 53.9584 71.2529C54.2364 71.1168 54.541 71.0488 54.8723 71.0488ZM57.5222 73.551C57.5222 73.0541 57.6228 72.6193 57.8239 72.2467C58.0251 71.8681 58.3001 71.5753 58.6491 71.3682C59.0041 71.1612 59.4004 71.0577 59.8381 71.0577C60.2167 71.0577 60.5687 71.1464 60.894 71.3239C61.2194 71.4954 61.4678 71.7232 61.6394 72.0071V69.4339H62.4557V76H61.6394V75.0861C61.4797 75.3759 61.243 75.6155 60.9295 75.8048C60.616 75.9882 60.2493 76.0799 59.8293 76.0799C59.3974 76.0799 59.0041 75.9734 58.6491 75.7604C58.3001 75.5475 58.0251 75.2487 57.8239 74.8642C57.6228 74.4797 57.5222 74.042 57.5222 73.551ZM61.6394 73.5599C61.6394 73.1931 61.5654 72.8737 61.4175 72.6016C61.2697 72.3295 61.0685 72.1225 60.8142 71.9805C60.5657 71.8326 60.2907 71.7587 59.989 71.7587C59.6873 71.7587 59.4122 71.8296 59.1638 71.9716C58.9153 72.1136 58.7172 72.3206 58.5693 72.5927C58.4214 72.8648 58.3474 73.1843 58.3474 73.551C58.3474 73.9237 58.4214 74.249 58.5693 74.5271C58.7172 74.7992 58.9153 75.0092 59.1638 75.1571C59.4122 75.299 59.6873 75.37 59.989 75.37C60.2907 75.37 60.5657 75.299 60.8142 75.1571C61.0685 75.0092 61.2697 74.7992 61.4175 74.5271C61.5654 74.249 61.6394 73.9266 61.6394 73.5599ZM63.8823 70.3478C63.7285 70.3478 63.5984 70.2946 63.4919 70.1881C63.3854 70.0816 63.3322 69.9515 63.3322 69.7977C63.3322 69.6439 63.3854 69.5138 63.4919 69.4073C63.5984 69.3008 63.7285 69.2476 63.8823 69.2476C64.0302 69.2476 64.1544 69.3008 64.255 69.4073C64.3615 69.5138 64.4147 69.6439 64.4147 69.7977C64.4147 69.9515 64.3615 70.0816 64.255 70.1881C64.1544 70.2946 64.0302 70.3478 63.8823 70.3478ZM64.2727 71.1375V76H63.4653V71.1375H64.2727ZM66.2789 71.803V74.669C66.2789 74.9056 66.3292 75.0742 66.4297 75.1748C66.5303 75.2694 66.7048 75.3168 66.9533 75.3168H67.5478V76H66.8202C66.3706 76 66.0334 75.8965 65.8086 75.6894C65.5838 75.4824 65.4714 75.1423 65.4714 74.669V71.803H64.8415V71.1375H65.4714V69.913H66.2789V71.1375H67.5478V71.803H66.2789ZM68.5882 70.3478C68.4344 70.3478 68.3043 70.2946 68.1978 70.1881C68.0913 70.0816 68.0381 69.9515 68.0381 69.7977C68.0381 69.6439 68.0913 69.5138 68.1978 69.4073C68.3043 69.3008 68.4344 69.2476 68.5882 69.2476C68.7361 69.2476 68.8603 69.3008 68.9609 69.4073C69.0673 69.5138 69.1206 69.6439 69.1206 69.7977C69.1206 69.9515 69.0673 70.0816 68.9609 70.1881C68.8603 70.2946 68.7361 70.3478 68.5882 70.3478ZM68.9786 71.1375V76H68.1712V71.1375H68.9786ZM72.1205 76.0799C71.665 76.0799 71.251 75.9763 70.8783 75.7693C70.5115 75.5623 70.2217 75.2694 70.0087 74.8909C69.8017 74.5064 69.6982 74.0627 69.6982 73.5599C69.6982 73.063 69.8046 72.6253 70.0176 72.2467C70.2365 71.8622 70.5322 71.5694 70.9049 71.3682C71.2776 71.1612 71.6946 71.0577 72.156 71.0577C72.6174 71.0577 73.0345 71.1612 73.4071 71.3682C73.7798 71.5694 74.0726 71.8592 74.2856 72.2378C74.5044 72.6164 74.6139 73.0571 74.6139 73.5599C74.6139 74.0627 74.5015 74.5064 74.2767 74.8909C74.0578 75.2694 73.7591 75.5623 73.3805 75.7693C73.0019 75.9763 72.5819 76.0799 72.1205 76.0799ZM72.1205 75.37C72.4104 75.37 72.6825 75.302 72.9369 75.1659C73.1912 75.0299 73.3953 74.8258 73.5491 74.5537C73.7088 74.2816 73.7887 73.9503 73.7887 73.5599C73.7887 73.1695 73.7118 72.8382 73.558 72.5661C73.4042 72.294 73.203 72.0929 72.9546 71.9627C72.7062 71.8267 72.437 71.7587 72.1471 71.7587C71.8514 71.7587 71.5793 71.8267 71.3308 71.9627C71.0883 72.0929 70.8931 72.294 70.7452 72.5661C70.5973 72.8382 70.5234 73.1695 70.5234 73.5599C70.5234 73.9562 70.5943 74.2904 70.7363 74.5626C70.8842 74.8347 71.0794 75.0387 71.3219 75.1748C71.5645 75.3049 71.8307 75.37 72.1205 75.37ZM77.6897 71.0488C78.2813 71.0488 78.7604 71.2292 79.1272 71.5901C79.4939 71.945 79.6773 72.4596 79.6773 73.134V76H78.8787V73.2493C78.8787 72.7643 78.7575 72.3946 78.5149 72.1402C78.2724 71.8799 77.9411 71.7498 77.5211 71.7498C77.0952 71.7498 76.7551 71.8829 76.5007 72.1491C76.2523 72.4153 76.1281 72.8027 76.1281 73.3114V76H75.3206V71.1375H76.1281V71.8296C76.2878 71.5812 76.5037 71.3889 76.7758 71.2529C77.0538 71.1168 77.3585 71.0488 77.6897 71.0488Z" fill="#B5B5B5"/>
<path d="M46.2531 92.4199H45.1496L41.8295 87.3961V92.4199H40.726V85.6828H41.8295L45.1496 90.6969V85.6828H46.2531V92.4199ZM48.2636 86.3798C48.0636 86.3798 47.8958 86.312 47.7603 86.1765C47.6248 86.041 47.557 85.8732 47.557 85.6731C47.557 85.4731 47.6248 85.3053 47.7603 85.1698C47.8958 85.0343 48.0636 84.9665 48.2636 84.9665C48.4572 84.9665 48.6218 85.0343 48.7573 85.1698C48.8928 85.3053 48.9606 85.4731 48.9606 85.6731C48.9606 85.8732 48.8928 86.041 48.7573 86.1765C48.6218 86.312 48.4572 86.3798 48.2636 86.3798ZM48.8057 87.0864V92.4199H47.7022V87.0864H48.8057ZM52.4034 86.9993C52.8164 86.9993 53.181 87.0831 53.4972 87.2509C53.8199 87.4123 54.0715 87.6155 54.2522 87.8608V87.0864H55.3654V92.507C55.3654 92.9975 55.2622 93.4331 55.0557 93.8138C54.8492 94.201 54.5491 94.5043 54.1554 94.7237C53.7682 94.9431 53.3036 95.0528 52.7616 95.0528C52.0388 95.0528 51.4387 94.8818 50.9611 94.5398C50.4836 94.2042 50.2125 93.746 50.148 93.1653H51.2418C51.3257 93.4427 51.5032 93.6654 51.7742 93.8332C52.0517 94.0074 52.3808 94.0945 52.7616 94.0945C53.2068 94.0945 53.565 93.959 53.836 93.688C54.1135 93.4169 54.2522 93.0233 54.2522 92.507V91.6165C54.0651 91.8682 53.8102 92.0811 53.4875 92.2554C53.1713 92.4231 52.81 92.507 52.4034 92.507C51.9388 92.507 51.5129 92.3909 51.1257 92.1586C50.7449 91.9198 50.4416 91.5907 50.2158 91.1712C49.9964 90.7453 49.8867 90.2646 49.8867 89.7289C49.8867 89.1933 49.9964 88.719 50.2158 88.306C50.4416 87.893 50.7449 87.5736 51.1257 87.3477C51.5129 87.1154 51.9388 86.9993 52.4034 86.9993ZM54.2522 89.7483C54.2522 89.3805 54.1748 89.061 54.0199 88.79C53.8715 88.519 53.6747 88.3125 53.4295 88.1705C53.1842 88.0285 52.9197 87.9576 52.6357 87.9576C52.3518 87.9576 52.0872 88.0285 51.842 88.1705C51.5968 88.306 51.3967 88.5093 51.2418 88.7803C51.0934 89.0449 51.0192 89.3611 51.0192 89.7289C51.0192 90.0968 51.0934 90.4194 51.2418 90.6969C51.3967 90.9744 51.5968 91.1874 51.842 91.3358C52.0936 91.4778 52.3582 91.5487 52.6357 91.5487C52.9197 91.5487 53.1842 91.4778 53.4295 91.3358C53.6747 91.1938 53.8715 90.9873 54.0199 90.7163C54.1748 90.4388 54.2522 90.1161 54.2522 89.7483ZM61.7031 89.6225C61.7031 89.8225 61.6902 90.0032 61.6644 90.1645H57.5892C57.6214 90.5904 57.7795 90.9325 58.0635 91.1906C58.3474 91.4487 58.6959 91.5778 59.1089 91.5778C59.7026 91.5778 60.1221 91.3293 60.3673 90.8324H61.5579C61.3966 91.3229 61.1029 91.7262 60.677 92.0424C60.2576 92.3522 59.7349 92.507 59.1089 92.507C58.5991 92.507 58.1409 92.3941 57.7344 92.1682C57.3343 91.9359 57.0181 91.6133 56.7858 91.2003C56.5599 90.7808 56.447 90.2968 56.447 89.7483C56.447 89.1998 56.5567 88.719 56.7761 88.306C57.0019 87.8866 57.3149 87.5639 57.715 87.338C58.1216 87.1122 58.5862 86.9993 59.1089 86.9993C59.6122 86.9993 60.0607 87.109 60.4544 87.3284C60.848 87.5478 61.1546 87.8575 61.374 88.2576C61.5934 88.6513 61.7031 89.1062 61.7031 89.6225ZM60.5512 89.274C60.5447 88.8675 60.3995 88.5416 60.1156 88.2963C59.8317 88.0511 59.48 87.9285 59.0605 87.9285C58.6798 87.9285 58.3539 88.0511 58.0828 88.2963C57.8118 88.5351 57.6505 88.861 57.5989 89.274H60.5512ZM63.8925 87.8608C64.0538 87.5897 64.2668 87.38 64.5314 87.2316C64.8024 87.0767 65.1218 86.9993 65.4897 86.9993V88.1415H65.209C64.7766 88.1415 64.4475 88.2512 64.2216 88.4706C64.0022 88.69 63.8925 89.0707 63.8925 89.6128V92.4199H62.789V87.0864H63.8925V87.8608ZM67.0654 86.3798C66.8654 86.3798 66.6976 86.312 66.5621 86.1765C66.4266 86.041 66.3588 85.8732 66.3588 85.6731C66.3588 85.4731 66.4266 85.3053 66.5621 85.1698C66.6976 85.0343 66.8654 84.9665 67.0654 84.9665C67.259 84.9665 67.4236 85.0343 67.5591 85.1698C67.6946 85.3053 67.7624 85.4731 67.7624 85.6731C67.7624 85.8732 67.6946 86.041 67.5591 86.1765C67.4236 86.312 67.259 86.3798 67.0654 86.3798ZM67.6075 87.0864V92.4199H66.504V87.0864H67.6075ZM68.6885 89.7289C68.6885 89.1933 68.7982 88.719 69.0176 88.306C69.2434 87.893 69.5467 87.5736 69.9275 87.3477C70.3147 87.1154 70.7406 86.9993 71.2052 86.9993C71.6247 86.9993 71.9893 87.0831 72.299 87.2509C72.6152 87.4123 72.8669 87.6155 73.054 87.8608V87.0864H74.1672V92.4199H73.054V91.6262C72.8669 91.8779 72.612 92.0876 72.2893 92.2554C71.9667 92.4231 71.5988 92.507 71.1858 92.507C70.7277 92.507 70.3082 92.3909 69.9275 92.1586C69.5467 91.9198 69.2434 91.5907 69.0176 91.1712C68.7982 90.7453 68.6885 90.2646 68.6885 89.7289ZM73.054 89.7483C73.054 89.3805 72.9766 89.061 72.8217 88.79C72.6733 88.519 72.4765 88.3125 72.2312 88.1705C71.986 88.0285 71.7214 87.9576 71.4375 87.9576C71.1536 87.9576 70.889 88.0285 70.6438 88.1705C70.3985 88.306 70.1985 88.5093 70.0436 88.7803C69.8952 89.0449 69.821 89.3611 69.821 89.7289C69.821 90.0968 69.8952 90.4194 70.0436 90.6969C70.1985 90.9744 70.3985 91.1874 70.6438 91.3358C70.8954 91.4778 71.16 91.5487 71.4375 91.5487C71.7214 91.5487 71.986 91.4778 72.2312 91.3358C72.4765 91.1938 72.6733 90.9873 72.8217 90.7163C72.9766 90.4388 73.054 90.1161 73.054 89.7483ZM78.3076 86.9993C78.727 86.9993 79.1013 87.0864 79.4304 87.2606C79.766 87.4348 80.0273 87.693 80.2145 88.035C80.4016 88.377 80.4952 88.79 80.4952 89.274V92.4199H79.4014V89.4386C79.4014 88.961 79.282 88.5964 79.0432 88.3447C78.8045 88.0866 78.4786 87.9576 78.0656 87.9576C77.6526 87.9576 77.3235 88.0866 77.0782 88.3447C76.8395 88.5964 76.7201 88.961 76.7201 89.4386V92.4199H75.6166V87.0864H76.7201V87.6962C76.9008 87.4768 77.1299 87.3058 77.4074 87.1832C77.6913 87.0606 77.9914 86.9993 78.3076 86.9993ZM85.511 85.6925V89.9806C85.511 90.4904 85.6433 90.8744 85.9079 91.1325C86.1789 91.3906 86.5532 91.5197 87.0308 91.5197C87.5148 91.5197 87.889 91.3906 88.1536 91.1325C88.4247 90.8744 88.5602 90.4904 88.5602 89.9806V85.6925H89.6637V89.9613C89.6637 90.5098 89.5443 90.9744 89.3055 91.3551C89.0667 91.7359 88.7473 92.0198 88.3472 92.207C87.9471 92.3941 87.5051 92.4877 87.0211 92.4877C86.5371 92.4877 86.0951 92.3941 85.695 92.207C85.3013 92.0198 84.9883 91.7359 84.756 91.3551C84.5237 90.9744 84.4076 90.5098 84.4076 89.9613V85.6925H85.511ZM93.0364 92.507C92.6169 92.507 92.2394 92.4328 91.9038 92.2844C91.5747 92.1295 91.3134 91.923 91.1198 91.6649C90.9262 91.4003 90.8229 91.1067 90.81 90.784H91.9522C91.9716 91.0099 92.0781 91.2003 92.2717 91.3551C92.4717 91.5036 92.7202 91.5778 93.017 91.5778C93.3268 91.5778 93.5655 91.5197 93.7333 91.4035C93.9076 91.2809 93.9947 91.1261 93.9947 90.9389C93.9947 90.7389 93.8979 90.5904 93.7043 90.4936C93.5171 90.3969 93.2171 90.2904 92.8041 90.1742C92.404 90.0645 92.0781 89.958 91.8264 89.8548C91.5747 89.7515 91.3553 89.5934 91.1682 89.3805C90.9875 89.1675 90.8972 88.8868 90.8972 88.5383C90.8972 88.2544 90.981 87.9963 91.1488 87.764C91.3166 87.5252 91.5554 87.338 91.8651 87.2025C92.1813 87.067 92.5427 86.9993 92.9493 86.9993C93.5559 86.9993 94.0431 87.1541 94.4109 87.4639C94.7852 87.7672 94.9852 88.1834 95.011 88.7126H93.9076C93.8882 88.4738 93.7914 88.2834 93.6172 88.1415C93.4429 87.9995 93.2074 87.9285 92.9105 87.9285C92.6201 87.9285 92.3975 87.9834 92.2426 88.0931C92.0878 88.2028 92.0103 88.348 92.0103 88.5287C92.0103 88.6706 92.0619 88.79 92.1652 88.8868C92.2684 88.9836 92.3943 89.061 92.5427 89.1191C92.6911 89.1707 92.9105 89.2385 93.2009 89.3224C93.5881 89.4256 93.9043 89.5321 94.1495 89.6418C94.4012 89.7451 94.6174 89.9 94.7981 90.1065C94.9788 90.313 95.0724 90.5872 95.0788 90.9292C95.0788 91.2325 94.9949 91.5036 94.8271 91.7423C94.6593 91.9811 94.4206 92.1682 94.1108 92.3038C93.8075 92.4393 93.4494 92.507 93.0364 92.507ZM101.159 89.6225C101.159 89.8225 101.147 90.0032 101.121 90.1645H97.0455C97.0778 90.5904 97.2359 90.9325 97.5198 91.1906C97.8038 91.4487 98.1523 91.5778 98.5653 91.5778C99.159 91.5778 99.5784 91.3293 99.8236 90.8324H101.014C100.853 91.3229 100.559 91.7262 100.133 92.0424C99.7139 92.3522 99.1912 92.507 98.5653 92.507C98.0555 92.507 97.5973 92.3941 97.1907 92.1682C96.7906 91.9359 96.4744 91.6133 96.2421 91.2003C96.0163 90.7808 95.9033 90.2968 95.9033 89.7483C95.9033 89.1998 96.013 88.719 96.2324 88.306C96.4583 87.8866 96.7713 87.5639 97.1714 87.338C97.5779 87.1122 98.0426 86.9993 98.5653 86.9993C99.0686 86.9993 99.5171 87.109 99.9107 87.3284C100.304 87.5478 100.611 87.8575 100.83 88.2576C101.05 88.6513 101.159 89.1062 101.159 89.6225ZM100.008 89.274C100.001 88.8675 99.8559 88.5416 99.572 88.2963C99.288 88.0511 98.9363 87.9285 98.5169 87.9285C98.1361 87.9285 97.8102 88.0511 97.5392 88.2963C97.2682 88.5351 97.1068 88.861 97.0552 89.274H100.008ZM101.878 89.7289C101.878 89.1933 101.987 88.719 102.207 88.306C102.433 87.893 102.736 87.5736 103.117 87.3477C103.504 87.1154 103.933 86.9993 104.404 86.9993C104.752 86.9993 105.094 87.0767 105.43 87.2316C105.772 87.38 106.043 87.58 106.243 87.8317V85.2569H107.356V92.4199H106.243V91.6165C106.062 91.8746 105.811 92.0876 105.488 92.2554C105.172 92.4231 104.807 92.507 104.394 92.507C103.93 92.507 103.504 92.3909 103.117 92.1586C102.736 91.9198 102.433 91.5907 102.207 91.1712C101.987 90.7453 101.878 90.2646 101.878 89.7289ZM106.243 89.7483C106.243 89.3805 106.166 89.061 106.011 88.79C105.862 88.519 105.666 88.3125 105.42 88.1705C105.175 88.0285 104.911 87.9576 104.627 87.9576C104.343 87.9576 104.078 88.0285 103.833 88.1705C103.588 88.306 103.388 88.5093 103.233 88.7803C103.084 89.0449 103.01 89.3611 103.01 89.7289C103.01 90.0968 103.084 90.4194 103.233 90.6969C103.388 90.9744 103.588 91.1874 103.833 91.3358C104.085 91.4778 104.349 91.5487 104.627 91.5487C104.911 91.5487 105.175 91.4778 105.42 91.3358C105.666 91.1938 105.862 90.9873 106.011 90.7163C106.166 90.4388 106.243 90.1161 106.243 89.7483Z" fill="#073335"/>
<path d="M46.9565 119.639V125.78H46.1491V121.201L44.1083 125.78H43.5404L41.4907 121.192V125.78H40.6832V119.639H41.5528L43.8243 124.715L46.0958 119.639H46.9565ZM47.6693 123.331C47.6693 122.834 47.7698 122.399 47.971 122.026C48.1721 121.648 48.4472 121.355 48.7962 121.148C49.1511 120.941 49.5445 120.837 49.9763 120.837C50.4022 120.837 50.7719 120.929 51.0854 121.112C51.3989 121.296 51.6326 121.526 51.7864 121.804V120.917H52.6027V125.78H51.7864V124.874C51.6267 125.158 51.3871 125.395 51.0677 125.584C50.7542 125.768 50.3874 125.859 49.9674 125.859C49.5356 125.859 49.1452 125.753 48.7962 125.54C48.4472 125.327 48.1721 125.028 47.971 124.644C47.7698 124.259 47.6693 123.822 47.6693 123.331ZM51.7864 123.339C51.7864 122.973 51.7125 122.653 51.5646 122.381C51.4167 122.109 51.2156 121.902 50.9612 121.76C50.7128 121.612 50.4377 121.538 50.136 121.538C49.8343 121.538 49.5593 121.609 49.3108 121.751C49.0624 121.893 48.8642 122.1 48.7163 122.372C48.5684 122.644 48.4945 122.964 48.4945 123.331C48.4945 123.703 48.5684 124.029 48.7163 124.307C48.8642 124.579 49.0624 124.789 49.3108 124.937C49.5593 125.079 49.8343 125.15 50.136 125.15C50.4377 125.15 50.7128 125.079 50.9612 124.937C51.2156 124.789 51.4167 124.579 51.5646 124.307C51.7125 124.029 51.7864 123.706 51.7864 123.339ZM56.3275 125.78L54.4198 123.632V125.78H53.6123V119.213H54.4198V123.073L56.292 120.917H57.4189L55.1296 123.339L57.4278 125.78H56.3275ZM62.2605 123.162C62.2605 123.316 62.2516 123.478 62.2339 123.65H58.3474C58.377 124.129 58.5397 124.505 58.8355 124.777C59.1372 125.043 59.501 125.176 59.9269 125.176C60.2759 125.176 60.5657 125.096 60.7964 124.937C61.033 124.771 61.1987 124.552 61.2933 124.28H62.1629C62.0327 124.747 61.7725 125.129 61.3821 125.425C60.9916 125.714 60.5066 125.859 59.9269 125.859C59.4655 125.859 59.0514 125.756 58.6846 125.549C58.3238 125.342 58.0398 125.049 57.8328 124.67C57.6258 124.286 57.5222 123.842 57.5222 123.339C57.5222 122.837 57.6228 122.396 57.8239 122.017C58.0251 121.639 58.306 121.349 58.6669 121.148C59.0336 120.941 59.4536 120.837 59.9269 120.837C60.3883 120.837 60.7964 120.938 61.1513 121.139C61.5063 121.34 61.7784 121.618 61.9677 121.973C62.1629 122.322 62.2605 122.718 62.2605 123.162ZM61.4264 122.993C61.4264 122.686 61.3584 122.423 61.2223 122.204C61.0863 121.979 60.8999 121.81 60.6633 121.698C60.4326 121.58 60.1753 121.52 59.8914 121.52C59.4832 121.52 59.1342 121.651 58.8443 121.911C58.5604 122.171 58.3977 122.532 58.3563 122.993H61.4264Z" fill="#B5B5B5"/>
<path d="M46.0982 135.472V142.199H44.9948V139.257H41.8295V142.199H40.726V135.472H41.8295V138.357H44.9948V135.472H46.0982ZM52.3521 136.866L49.0804 144.707H47.9382L49.0223 142.112L46.9218 136.866H48.1511L49.6515 140.931L51.2099 136.866H52.3521ZM58.0151 136.866V142.199H56.9116V141.57C56.7374 141.79 56.5083 141.964 56.2243 142.093C55.9468 142.216 55.65 142.277 55.3338 142.277C54.9143 142.277 54.5368 142.19 54.2013 142.016C53.8722 141.841 53.6108 141.583 53.4172 141.241C53.2301 140.899 53.1365 140.486 53.1365 140.002V136.866H54.2303V139.838C54.2303 140.315 54.3497 140.683 54.5885 140.941C54.8272 141.193 55.1531 141.319 55.5661 141.319C55.9791 141.319 56.305 141.193 56.5438 140.941C56.789 140.683 56.9116 140.315 56.9116 139.838V136.866H58.0151ZM62.162 136.779C62.5815 136.779 62.9558 136.866 63.2849 137.04C63.6205 137.214 63.8818 137.473 64.0689 137.815C64.2561 138.157 64.3497 138.57 64.3497 139.054V142.199H63.2558V139.218C63.2558 138.741 63.1365 138.376 62.8977 138.124C62.6589 137.866 62.333 137.737 61.92 137.737C61.507 137.737 61.1779 137.866 60.9327 138.124C60.6939 138.376 60.5746 138.741 60.5746 139.218V142.199H59.4711V136.866H60.5746V137.476C60.7552 137.256 60.9843 137.085 61.2618 136.963C61.5458 136.84 61.8458 136.779 62.162 136.779ZM65.3894 139.508C65.3894 138.973 65.4991 138.499 65.7185 138.086C65.9444 137.673 66.2477 137.353 66.6284 137.127C67.0156 136.895 67.4447 136.779 67.9158 136.779C68.2643 136.779 68.6063 136.856 68.9419 137.011C69.2839 137.16 69.5549 137.36 69.755 137.611V135.036H70.8681V142.199H69.755V141.396C69.5743 141.654 69.3226 141.867 69 142.035C68.6837 142.203 68.3191 142.287 67.9061 142.287C67.4415 142.287 67.0156 142.17 66.6284 141.938C66.2477 141.699 65.9444 141.37 65.7185 140.951C65.4991 140.525 65.3894 140.044 65.3894 139.508ZM69.755 139.528C69.755 139.16 69.6775 138.841 69.5227 138.57C69.3742 138.299 69.1774 138.092 68.9322 137.95C68.687 137.808 68.4224 137.737 68.1385 137.737C67.8545 137.737 67.5899 137.808 67.3447 137.95C67.0995 138.086 66.8994 138.289 66.7446 138.56C66.5961 138.824 66.5219 139.141 66.5219 139.508C66.5219 139.876 66.5961 140.199 66.7446 140.476C66.8994 140.754 67.0995 140.967 67.3447 141.115C67.5964 141.257 67.861 141.328 68.1385 141.328C68.4224 141.328 68.687 141.257 68.9322 141.115C69.1774 140.973 69.3742 140.767 69.5227 140.496C69.6775 140.218 69.755 139.896 69.755 139.528ZM71.9497 139.508C71.9497 138.973 72.0594 138.499 72.2788 138.086C72.5047 137.673 72.808 137.353 73.1887 137.127C73.5759 136.895 74.0018 136.779 74.4664 136.779C74.8859 136.779 75.2505 136.863 75.5603 137.03C75.8765 137.192 76.1281 137.395 76.3153 137.64V136.866H77.4284V142.199H76.3153V141.406C76.1281 141.657 75.8732 141.867 75.5506 142.035C75.2279 142.203 74.8601 142.287 74.4471 142.287C73.9889 142.287 73.5695 142.17 73.1887 141.938C72.808 141.699 72.5047 141.37 72.2788 140.951C72.0594 140.525 71.9497 140.044 71.9497 139.508ZM76.3153 139.528C76.3153 139.16 76.2378 138.841 76.083 138.57C75.9345 138.299 75.7377 138.092 75.4925 137.95C75.2473 137.808 74.9827 137.737 74.6988 137.737C74.4148 137.737 74.1502 137.808 73.905 137.95C73.6598 138.086 73.4597 138.289 73.3049 138.56C73.1564 138.824 73.0822 139.141 73.0822 139.508C73.0822 139.876 73.1564 140.199 73.3049 140.476C73.4597 140.754 73.6598 140.967 73.905 141.115C74.1567 141.257 74.4213 141.328 74.6988 141.328C74.9827 141.328 75.2473 141.257 75.4925 141.115C75.7377 140.973 75.9345 140.767 76.083 140.496C76.2378 140.218 76.3153 139.896 76.3153 139.528ZM79.4393 136.159C79.2392 136.159 79.0714 136.092 78.9359 135.956C78.8004 135.821 78.7326 135.653 78.7326 135.453C78.7326 135.253 78.8004 135.085 78.9359 134.949C79.0714 134.814 79.2392 134.746 79.4393 134.746C79.6329 134.746 79.7974 134.814 79.9329 134.949C80.0685 135.085 80.1362 135.253 80.1362 135.453C80.1362 135.653 80.0685 135.821 79.9329 135.956C79.7974 136.092 79.6329 136.159 79.4393 136.159ZM79.9813 136.866V142.199H78.8778V136.866H79.9813Z" fill="#073335"/>
<path d="M46.9565 169.419V175.559H46.1491V170.98L44.1083 175.559H43.5404L41.4907 170.971V175.559H40.6832V169.419H41.5528L43.8243 174.494L46.0958 169.419H46.9565ZM50.0916 175.639C49.6362 175.639 49.2221 175.535 48.8494 175.328C48.4826 175.121 48.1928 174.828 47.9798 174.45C47.7728 174.065 47.6693 173.622 47.6693 173.119C47.6693 172.622 47.7758 172.184 47.9887 171.806C48.2076 171.421 48.5034 171.128 48.876 170.927C49.2487 170.72 49.6657 170.617 50.1271 170.617C50.5885 170.617 51.0056 170.72 51.3782 170.927C51.7509 171.128 52.0437 171.418 52.2567 171.797C52.4755 172.175 52.585 172.616 52.585 173.119C52.585 173.622 52.4726 174.065 52.2478 174.45C52.0289 174.828 51.7302 175.121 51.3516 175.328C50.973 175.535 50.553 175.639 50.0916 175.639ZM50.0916 174.929C50.3815 174.929 50.6536 174.861 50.908 174.725C51.1623 174.589 51.3664 174.385 51.5202 174.113C51.6799 173.84 51.7598 173.509 51.7598 173.119C51.7598 172.728 51.6829 172.397 51.5291 172.125C51.3753 171.853 51.1742 171.652 50.9257 171.522C50.6773 171.386 50.4081 171.317 50.1183 171.317C49.8225 171.317 49.5504 171.386 49.3019 171.522C49.0594 171.652 48.8642 171.853 48.7163 172.125C48.5684 172.397 48.4945 172.728 48.4945 173.119C48.4945 173.515 48.5655 173.849 48.7074 174.121C48.8553 174.394 49.0505 174.598 49.2931 174.734C49.5356 174.864 49.8018 174.929 50.0916 174.929ZM52.99 173.11C52.99 172.613 53.0906 172.178 53.2917 171.806C53.4928 171.427 53.7679 171.134 54.1169 170.927C54.4718 170.72 54.8682 170.617 55.3059 170.617C55.6845 170.617 56.0365 170.705 56.3618 170.883C56.6872 171.054 56.9356 171.282 57.1072 171.566V168.993H57.9235V175.559H57.1072V174.645C56.9474 174.935 56.7108 175.174 56.3973 175.364C56.0838 175.547 55.717 175.639 55.297 175.639C54.8652 175.639 54.4718 175.532 54.1169 175.319C53.7679 175.106 53.4928 174.808 53.2917 174.423C53.0906 174.039 52.99 173.601 52.99 173.11ZM57.1072 173.119C57.1072 172.752 57.0332 172.433 56.8853 172.16C56.7374 171.888 56.5363 171.681 56.282 171.539C56.0335 171.391 55.7584 171.317 55.4568 171.317C55.1551 171.317 54.88 171.388 54.6316 171.53C54.3831 171.672 54.1849 171.879 54.0371 172.152C53.8892 172.424 53.8152 172.743 53.8152 173.11C53.8152 173.483 53.8892 173.808 54.0371 174.086C54.1849 174.358 54.3831 174.568 54.6316 174.716C54.88 174.858 55.1551 174.929 55.4568 174.929C55.7584 174.929 56.0335 174.858 56.282 174.716C56.5363 174.568 56.7374 174.358 56.8853 174.086C57.0332 173.808 57.1072 173.485 57.1072 173.119ZM63.3696 172.941C63.3696 173.095 63.3608 173.258 63.343 173.429H59.4566C59.4862 173.908 59.6488 174.284 59.9446 174.556C60.2463 174.822 60.6101 174.955 61.036 174.955C61.385 174.955 61.6749 174.876 61.9056 174.716C62.1422 174.55 62.3078 174.331 62.4025 174.059H63.272C63.1419 174.527 62.8816 174.908 62.4912 175.204C62.1008 175.494 61.6157 175.639 61.036 175.639C60.5746 175.639 60.1605 175.535 59.7938 175.328C59.4329 175.121 59.149 174.828 58.9419 174.45C58.7349 174.065 58.6314 173.622 58.6314 173.119C58.6314 172.616 58.7319 172.175 58.9331 171.797C59.1342 171.418 59.4152 171.128 59.776 170.927C60.1428 170.72 60.5628 170.617 61.036 170.617C61.4974 170.617 61.9056 170.717 62.2605 170.918C62.6154 171.119 62.8875 171.397 63.0768 171.752C63.272 172.101 63.3696 172.498 63.3696 172.941ZM62.5356 172.773C62.5356 172.465 62.4675 172.202 62.3315 171.983C62.1954 171.758 62.0091 171.59 61.7725 171.477C61.5418 171.359 61.2844 171.3 61.0005 171.3C60.5923 171.3 60.2433 171.43 59.9535 171.69C59.6695 171.95 59.5069 172.311 59.4655 172.773H62.5356ZM64.888 168.993V175.559H64.0805V168.993H64.888Z" fill="#B5B5B5"/>
<path d="M44.685 185.251V186.152H41.8295V188.136H44.0558V189.036H41.8295V191.979H40.726V185.251H44.685ZM50.5959 189.181C50.5959 189.381 50.583 189.562 50.5572 189.723H46.482C46.5143 190.149 46.6724 190.491 46.9563 190.749C47.2403 191.008 47.5888 191.137 48.0018 191.137C48.5954 191.137 49.0149 190.888 49.2601 190.391H50.4507C50.2894 190.882 49.9958 191.285 49.5699 191.601C49.1504 191.911 48.6277 192.066 48.0018 192.066C47.492 192.066 47.0338 191.953 46.6272 191.727C46.2271 191.495 45.9109 191.172 45.6786 190.759C45.4528 190.34 45.3398 189.856 45.3398 189.307C45.3398 188.759 45.4495 188.278 45.6689 187.865C45.8948 187.445 46.2078 187.123 46.6079 186.897C47.0144 186.671 47.479 186.558 48.0018 186.558C48.5051 186.558 48.9536 186.668 49.3472 186.887C49.7409 187.107 50.0474 187.416 50.2668 187.816C50.4862 188.21 50.5959 188.665 50.5959 189.181ZM49.444 188.833C49.4376 188.426 49.2924 188.1 49.0085 187.855C48.7245 187.61 48.3728 187.487 47.9534 187.487C47.5726 187.487 47.2467 187.61 46.9757 187.855C46.7047 188.094 46.5433 188.42 46.4917 188.833H49.444Z" fill="#073335"/>
<path d="M143.053 69.8154L141.038 73.6664V76H140.231V73.6664L138.208 69.8154H139.104L140.63 72.9476L142.156 69.8154H143.053ZM147.986 73.3824C147.986 73.5362 147.977 73.6989 147.959 73.8705H144.073C144.102 74.3496 144.265 74.7252 144.561 74.9973C144.863 75.2635 145.226 75.3966 145.652 75.3966C146.001 75.3966 146.291 75.3168 146.522 75.1571C146.758 74.9914 146.924 74.7726 147.019 74.5004H147.888C147.758 74.9678 147.498 75.3493 147.107 75.6451C146.717 75.9349 146.232 76.0799 145.652 76.0799C145.191 76.0799 144.777 75.9763 144.41 75.7693C144.049 75.5623 143.765 75.2694 143.558 74.8909C143.351 74.5064 143.248 74.0627 143.248 73.5599C143.248 73.0571 143.348 72.6164 143.549 72.2378C143.75 71.8592 144.031 71.5694 144.392 71.3682C144.759 71.1612 145.179 71.0577 145.652 71.0577C146.114 71.0577 146.522 71.1582 146.877 71.3594C147.232 71.5605 147.504 71.8385 147.693 72.1934C147.888 72.5424 147.986 72.9388 147.986 73.3824ZM147.152 73.2138C147.152 72.9062 147.084 72.643 146.948 72.4241C146.812 72.1994 146.625 72.0308 146.389 71.9184C146.158 71.8001 145.901 71.7409 145.617 71.7409C145.209 71.7409 144.86 71.871 144.57 72.1313C144.286 72.3916 144.123 72.7524 144.082 73.2138H147.152ZM148.395 73.551C148.395 73.0541 148.496 72.6193 148.697 72.2467C148.898 71.8681 149.173 71.5753 149.522 71.3682C149.877 71.1612 150.27 71.0577 150.702 71.0577C151.128 71.0577 151.498 71.1494 151.811 71.3327C152.125 71.5161 152.358 71.7468 152.512 72.0248V71.1375H153.329V76H152.512V75.0949C152.353 75.3789 152.113 75.6155 151.794 75.8048C151.48 75.9882 151.113 76.0799 150.693 76.0799C150.261 76.0799 149.871 75.9734 149.522 75.7604C149.173 75.5475 148.898 75.2487 148.697 74.8642C148.496 74.4797 148.395 74.042 148.395 73.551ZM152.512 73.5599C152.512 73.1931 152.438 72.8737 152.29 72.6016C152.143 72.3295 151.941 72.1225 151.687 71.9805C151.439 71.8326 151.164 71.7587 150.862 71.7587C150.56 71.7587 150.285 71.8296 150.037 71.9716C149.788 72.1136 149.59 72.3206 149.442 72.5927C149.294 72.8648 149.22 73.1843 149.22 73.551C149.22 73.9237 149.294 74.249 149.442 74.5271C149.59 74.7992 149.788 75.0092 150.037 75.1571C150.285 75.299 150.56 75.37 150.862 75.37C151.164 75.37 151.439 75.299 151.687 75.1571C151.941 75.0092 152.143 74.7992 152.29 74.5271C152.438 74.249 152.512 73.9266 152.512 73.5599ZM155.146 71.9272C155.288 71.6492 155.489 71.4333 155.749 71.2795C156.015 71.1257 156.338 71.0488 156.716 71.0488V71.8829H156.503C155.598 71.8829 155.146 72.3739 155.146 73.3558V76H154.338V71.1375H155.146V71.9272Z" fill="#B5B5B5"/>
<path d="M139.23 90.9196C139.849 90.3839 140.337 89.9451 140.692 89.6031C141.053 89.2546 141.353 88.8933 141.592 88.519C141.831 88.1447 141.95 87.7704 141.95 87.3961C141.95 87.0089 141.856 86.7056 141.669 86.4862C141.489 86.2668 141.201 86.1571 140.808 86.1571C140.427 86.1571 140.13 86.2797 139.917 86.5249C139.711 86.7637 139.601 87.0864 139.588 87.4929H138.523C138.543 86.7573 138.762 86.1958 139.182 85.8086C139.607 85.415 140.146 85.2182 140.798 85.2182C141.501 85.2182 142.05 85.4118 142.444 85.799C142.844 86.1862 143.044 86.7024 143.044 87.3477C143.044 87.8124 142.924 88.2609 142.686 88.6932C142.453 89.1191 142.173 89.5031 141.843 89.8451C141.521 90.1807 141.108 90.5711 140.604 91.0164L140.169 91.4035H143.237V92.3231H138.533V91.5197L139.23 90.9196ZM144.207 88.7997C144.207 87.6833 144.394 86.8121 144.768 86.1862C145.149 85.5537 145.801 85.2375 146.723 85.2375C147.646 85.2375 148.295 85.5537 148.669 86.1862C149.05 86.8121 149.24 87.6833 149.24 88.7997C149.24 89.929 149.05 90.8131 148.669 91.4519C148.295 92.0844 147.646 92.4006 146.723 92.4006C145.801 92.4006 145.149 92.0844 144.768 91.4519C144.394 90.8131 144.207 89.929 144.207 88.7997ZM148.156 88.7997C148.156 88.277 148.121 87.8349 148.05 87.4736C147.985 87.1122 147.85 86.8186 147.643 86.5927C147.437 86.3604 147.13 86.2442 146.723 86.2442C146.317 86.2442 146.01 86.3604 145.804 86.5927C145.597 86.8186 145.459 87.1122 145.388 87.4736C145.323 87.8349 145.291 88.277 145.291 88.7997C145.291 89.3418 145.323 89.7967 145.388 90.1645C145.452 90.5324 145.588 90.8292 145.794 91.0551C146.007 91.2809 146.317 91.3939 146.723 91.3939C147.13 91.3939 147.437 91.2809 147.643 91.0551C147.856 90.8292 147.995 90.5324 148.059 90.1645C148.124 89.7967 148.156 89.3418 148.156 88.7997ZM150.408 88.7997C150.408 87.6833 150.595 86.8121 150.969 86.1862C151.35 85.5537 152.002 85.2375 152.925 85.2375C153.847 85.2375 154.496 85.5537 154.87 86.1862C155.251 86.8121 155.441 87.6833 155.441 88.7997C155.441 89.929 155.251 90.8131 154.87 91.4519C154.496 92.0844 153.847 92.4006 152.925 92.4006C152.002 92.4006 151.35 92.0844 150.969 91.4519C150.595 90.8131 150.408 89.929 150.408 88.7997ZM154.357 88.7997C154.357 88.277 154.322 87.8349 154.251 87.4736C154.186 87.1122 154.051 86.8186 153.844 86.5927C153.638 86.3604 153.331 86.2442 152.925 86.2442C152.518 86.2442 152.212 86.3604 152.005 86.5927C151.799 86.8186 151.66 87.1122 151.589 87.4736C151.524 87.8349 151.492 88.277 151.492 88.7997C151.492 89.3418 151.524 89.7967 151.589 90.1645C151.653 90.5324 151.789 90.8292 151.995 91.0551C152.208 91.2809 152.518 91.3939 152.925 91.3939C153.331 91.3939 153.638 91.2809 153.844 91.0551C154.057 90.8292 154.196 90.5324 154.26 90.1645C154.325 89.7967 154.357 89.3418 154.357 88.7997ZM157.983 90.5033C158.048 90.826 158.187 91.0712 158.4 91.239C158.613 91.4068 158.9 91.4907 159.261 91.4907C159.719 91.4907 160.055 91.31 160.268 90.9486C160.481 90.5872 160.587 89.9709 160.587 89.0998C160.432 89.3192 160.213 89.4902 159.929 89.6128C159.652 89.7289 159.348 89.787 159.019 89.787C158.6 89.787 158.219 89.7031 157.877 89.5354C157.535 89.3611 157.264 89.1062 157.064 88.7707C156.87 88.4286 156.773 88.0156 156.773 87.5316C156.773 86.8218 156.98 86.2571 157.393 85.8377C157.812 85.4118 158.387 85.1988 159.116 85.1988C159.994 85.1988 160.616 85.4924 160.984 86.0797C161.358 86.6605 161.546 87.5542 161.546 88.761C161.546 89.5934 161.475 90.2742 161.333 90.8034C161.197 91.3326 160.958 91.7327 160.616 92.0037C160.274 92.2747 159.8 92.4102 159.193 92.4102C158.503 92.4102 157.971 92.2296 157.596 91.8682C157.222 91.5068 157.012 91.0518 156.967 90.5033H157.983ZM159.213 88.8578C159.6 88.8578 159.903 88.7384 160.123 88.4996C160.349 88.2544 160.461 87.9317 160.461 87.5316C160.461 87.0864 160.342 86.7411 160.103 86.4959C159.871 86.2442 159.552 86.1184 159.145 86.1184C158.738 86.1184 158.416 86.2475 158.177 86.5056C157.945 86.7573 157.829 87.0896 157.829 87.5026C157.829 87.8962 157.942 88.2221 158.167 88.4803C158.4 88.7319 158.748 88.8578 159.213 88.8578Z" fill="#073335"/>
<path d="M138.421 122.683C138.421 122.079 138.557 121.538 138.829 121.059C139.101 120.574 139.471 120.195 139.938 119.923C140.411 119.651 140.935 119.515 141.509 119.515C142.183 119.515 142.772 119.678 143.274 120.003C143.777 120.328 144.144 120.79 144.375 121.387H143.408C143.236 121.015 142.988 120.728 142.662 120.527C142.343 120.326 141.958 120.225 141.509 120.225C141.077 120.225 140.689 120.326 140.346 120.527C140.003 120.728 139.734 121.015 139.539 121.387C139.344 121.754 139.246 122.186 139.246 122.683C139.246 123.174 139.344 123.606 139.539 123.978C139.734 124.345 140.003 124.629 140.346 124.83C140.689 125.031 141.077 125.132 141.509 125.132C141.958 125.132 142.343 125.034 142.662 124.839C142.988 124.638 143.236 124.351 143.408 123.978H144.375C144.144 124.57 143.777 125.028 143.274 125.354C142.772 125.673 142.183 125.833 141.509 125.833C140.935 125.833 140.411 125.7 139.938 125.433C139.471 125.161 139.101 124.786 138.829 124.307C138.557 123.827 138.421 123.286 138.421 122.683ZM147.342 125.859C146.887 125.859 146.473 125.756 146.1 125.549C145.733 125.342 145.444 125.049 145.231 124.67C145.024 124.286 144.92 123.842 144.92 123.339C144.92 122.843 145.027 122.405 145.239 122.026C145.458 121.642 145.754 121.349 146.127 121.148C146.499 120.941 146.917 120.837 147.378 120.837C147.839 120.837 148.256 120.941 148.629 121.148C149.002 121.349 149.295 121.639 149.507 122.017C149.726 122.396 149.836 122.837 149.836 123.339C149.836 123.842 149.723 124.286 149.499 124.67C149.28 125.049 148.981 125.342 148.602 125.549C148.224 125.756 147.804 125.859 147.342 125.859ZM147.342 125.15C147.632 125.15 147.904 125.082 148.159 124.945C148.413 124.809 148.617 124.605 148.771 124.333C148.931 124.061 149.011 123.73 149.011 123.339C149.011 122.949 148.934 122.618 148.78 122.346C148.626 122.074 148.425 121.872 148.176 121.742C147.928 121.606 147.659 121.538 147.369 121.538C147.073 121.538 146.801 121.606 146.553 121.742C146.31 121.872 146.115 122.074 145.967 122.346C145.819 122.618 145.745 122.949 145.745 123.339C145.745 123.736 145.816 124.07 145.958 124.342C146.106 124.614 146.301 124.818 146.544 124.954C146.786 125.084 147.053 125.15 147.342 125.15ZM151.35 119.213V125.78H150.542V119.213H151.35ZM154.492 125.859C154.036 125.859 153.622 125.756 153.25 125.549C152.883 125.342 152.593 125.049 152.38 124.67C152.173 124.286 152.069 123.842 152.069 123.339C152.069 122.843 152.176 122.405 152.389 122.026C152.608 121.642 152.904 121.349 153.276 121.148C153.649 120.941 154.066 120.837 154.527 120.837C154.989 120.837 155.406 120.941 155.778 121.148C156.151 121.349 156.444 121.639 156.657 122.017C156.876 122.396 156.985 122.837 156.985 123.339C156.985 123.842 156.873 124.286 156.648 124.67C156.429 125.049 156.13 125.342 155.752 125.549C155.373 125.756 154.953 125.859 154.492 125.859ZM154.492 125.15C154.782 125.15 155.054 125.082 155.308 124.945C155.563 124.809 155.767 124.605 155.92 124.333C156.08 124.061 156.16 123.73 156.16 123.339C156.16 122.949 156.083 122.618 155.929 122.346C155.776 122.074 155.574 121.872 155.326 121.742C155.077 121.606 154.808 121.538 154.518 121.538C154.223 121.538 153.951 121.606 153.702 121.742C153.46 121.872 153.264 122.074 153.117 122.346C152.969 122.618 152.895 122.949 152.895 123.339C152.895 123.736 152.966 124.07 153.108 124.342C153.256 124.614 153.451 124.818 153.693 124.954C153.936 125.084 154.202 125.15 154.492 125.15ZM162.004 120.917V125.78H161.197V125.061C161.043 125.309 160.827 125.504 160.549 125.646C160.277 125.782 159.975 125.851 159.644 125.851C159.265 125.851 158.925 125.774 158.624 125.62C158.322 125.46 158.082 125.223 157.905 124.91C157.733 124.596 157.648 124.215 157.648 123.765V120.917H158.446V123.659C158.446 124.138 158.567 124.508 158.81 124.768C159.052 125.022 159.384 125.15 159.804 125.15C160.236 125.15 160.576 125.016 160.824 124.75C161.073 124.484 161.197 124.097 161.197 123.588V120.917H162.004ZM163.82 121.707C163.962 121.429 164.163 121.213 164.424 121.059C164.69 120.905 165.012 120.828 165.391 120.828V121.662H165.178C164.273 121.662 163.82 122.153 163.82 123.135V125.78H163.013V120.917H163.82V121.707Z" fill="#B5B5B5"/>
<path d="M142.366 138.744C142.728 138.808 143.034 138.999 143.286 139.315C143.537 139.631 143.663 139.989 143.663 140.389C143.663 140.731 143.573 141.041 143.392 141.319C143.218 141.59 142.963 141.806 142.628 141.967C142.292 142.122 141.902 142.199 141.456 142.199H138.765V135.472H141.33C141.789 135.472 142.182 135.549 142.511 135.704C142.84 135.859 143.089 136.069 143.257 136.334C143.424 136.592 143.508 136.882 143.508 137.205C143.508 137.592 143.405 137.915 143.199 138.173C142.992 138.431 142.715 138.621 142.366 138.744ZM139.869 138.299H141.234C141.595 138.299 141.876 138.218 142.076 138.057C142.282 137.889 142.386 137.65 142.386 137.34C142.386 137.037 142.282 136.801 142.076 136.634C141.876 136.459 141.595 136.372 141.234 136.372H139.869V138.299ZM141.359 141.299C141.734 141.299 142.027 141.209 142.24 141.028C142.453 140.848 142.56 140.596 142.56 140.273C142.56 139.944 142.447 139.683 142.221 139.489C141.995 139.296 141.695 139.199 141.321 139.199H139.869V141.299H141.359ZM145.966 135.036V142.199H144.862V135.036H145.966ZM147.047 139.508C147.047 138.973 147.157 138.499 147.376 138.086C147.602 137.673 147.905 137.353 148.286 137.127C148.673 136.895 149.099 136.779 149.564 136.779C149.983 136.779 150.348 136.863 150.657 137.03C150.974 137.192 151.225 137.395 151.412 137.64V136.866H152.526V142.199H151.412V141.406C151.225 141.657 150.97 141.867 150.648 142.035C150.325 142.203 149.957 142.287 149.544 142.287C149.086 142.287 148.667 142.17 148.286 141.938C147.905 141.699 147.602 141.37 147.376 140.951C147.157 140.525 147.047 140.044 147.047 139.508ZM151.412 139.528C151.412 139.16 151.335 138.841 151.18 138.57C151.032 138.299 150.835 138.092 150.59 137.95C150.344 137.808 150.08 137.737 149.796 137.737C149.512 137.737 149.247 137.808 149.002 137.95C148.757 138.086 148.557 138.289 148.402 138.56C148.254 138.824 148.179 139.141 148.179 139.508C148.179 139.876 148.254 140.199 148.402 140.476C148.557 140.754 148.757 140.967 149.002 141.115C149.254 141.257 149.518 141.328 149.796 141.328C150.08 141.328 150.344 141.257 150.59 141.115C150.835 140.973 151.032 140.767 151.18 140.496C151.335 140.218 151.412 139.896 151.412 139.528ZM153.607 139.528C153.607 138.979 153.717 138.499 153.936 138.086C154.162 137.666 154.472 137.343 154.866 137.118C155.259 136.892 155.711 136.779 156.221 136.779C156.866 136.779 157.398 136.934 157.818 137.243C158.244 137.547 158.531 137.982 158.679 138.55H157.489C157.392 138.286 157.237 138.079 157.024 137.931C156.811 137.782 156.543 137.708 156.221 137.708C155.769 137.708 155.408 137.869 155.137 138.192C154.872 138.508 154.74 138.954 154.74 139.528C154.74 140.102 154.872 140.551 155.137 140.873C155.408 141.196 155.769 141.357 156.221 141.357C156.86 141.357 157.282 141.077 157.489 140.515H158.679C158.524 141.057 158.234 141.49 157.808 141.812C157.382 142.128 156.853 142.287 156.221 142.287C155.711 142.287 155.259 142.174 154.866 141.948C154.472 141.715 154.162 141.393 153.936 140.98C153.717 140.56 153.607 140.076 153.607 139.528ZM161.889 139.538L164.348 142.199H162.857L160.883 139.905V142.199H159.779V135.036H160.883V139.199L162.819 136.866H164.348L161.889 139.538Z" fill="#073335"/>
<path d="M144.996 169.419V175.559H144.188V170.98L142.148 175.559H141.58L139.53 170.971V175.559H138.723V169.419H139.592L141.864 174.494L144.135 169.419H144.996ZM146.427 169.907C146.274 169.907 146.143 169.853 146.037 169.747C145.93 169.64 145.877 169.51 145.877 169.357C145.877 169.203 145.93 169.073 146.037 168.966C146.143 168.86 146.274 168.806 146.427 168.806C146.575 168.806 146.699 168.86 146.8 168.966C146.906 169.073 146.96 169.203 146.96 169.357C146.96 169.51 146.906 169.64 146.8 169.747C146.699 169.853 146.575 169.907 146.427 169.907ZM146.818 170.696V175.559H146.01V170.696H146.818ZM148.646 168.993V175.559H147.839V168.993H148.646ZM154.104 172.941C154.104 173.095 154.095 173.258 154.078 173.429H150.191C150.221 173.908 150.383 174.284 150.679 174.556C150.981 174.822 151.345 174.955 151.771 174.955C152.12 174.955 152.409 174.876 152.64 174.716C152.877 174.55 153.042 174.331 153.137 174.059H154.007C153.876 174.527 153.616 174.908 153.226 175.204C152.835 175.494 152.35 175.639 151.771 175.639C151.309 175.639 150.895 175.535 150.528 175.328C150.168 175.121 149.884 174.828 149.677 174.45C149.469 174.065 149.366 173.622 149.366 173.119C149.366 172.616 149.467 172.175 149.668 171.797C149.869 171.418 150.15 171.128 150.511 170.927C150.877 170.72 151.297 170.617 151.771 170.617C152.232 170.617 152.64 170.717 152.995 170.918C153.35 171.119 153.622 171.397 153.811 171.752C154.007 172.101 154.104 172.498 154.104 172.941ZM153.27 172.773C153.27 172.465 153.202 172.202 153.066 171.983C152.93 171.758 152.744 171.59 152.507 171.477C152.276 171.359 152.019 171.3 151.735 171.3C151.327 171.3 150.978 171.43 150.688 171.69C150.404 171.95 150.241 172.311 150.2 172.773H153.27ZM154.513 173.11C154.513 172.613 154.614 172.178 154.815 171.806C155.016 171.427 155.291 171.134 155.64 170.927C155.995 170.72 156.389 170.617 156.82 170.617C157.246 170.617 157.616 170.708 157.93 170.892C158.243 171.075 158.477 171.306 158.631 171.584V170.696H159.447V175.559H158.631V174.654C158.471 174.938 158.231 175.174 157.912 175.364C157.598 175.547 157.232 175.639 156.812 175.639C156.38 175.639 155.989 175.532 155.64 175.319C155.291 175.106 155.016 174.808 154.815 174.423C154.614 174.039 154.513 173.601 154.513 173.11ZM158.631 173.119C158.631 172.752 158.557 172.433 158.409 172.16C158.261 171.888 158.06 171.681 157.805 171.539C157.557 171.391 157.282 171.317 156.98 171.317C156.678 171.317 156.403 171.388 156.155 171.53C155.906 171.672 155.708 171.879 155.56 172.152C155.413 172.424 155.339 172.743 155.339 173.11C155.339 173.483 155.413 173.808 155.56 174.086C155.708 174.358 155.906 174.568 156.155 174.716C156.403 174.858 156.678 174.929 156.98 174.929C157.282 174.929 157.557 174.858 157.805 174.716C158.06 174.568 158.261 174.358 158.409 174.086C158.557 173.808 158.631 173.485 158.631 173.119ZM162.462 170.617C162.882 170.617 163.249 170.708 163.562 170.892C163.881 171.075 164.118 171.306 164.272 171.584V170.696H165.088V175.665C165.088 176.109 164.994 176.502 164.804 176.845C164.615 177.194 164.343 177.467 163.988 177.662C163.639 177.857 163.231 177.955 162.763 177.955C162.125 177.955 161.592 177.804 161.166 177.502C160.74 177.2 160.489 176.789 160.412 176.269H161.211C161.299 176.564 161.483 176.801 161.761 176.979C162.039 177.162 162.373 177.254 162.763 177.254C163.207 177.254 163.568 177.115 163.846 176.837C164.13 176.559 164.272 176.168 164.272 175.665V174.645C164.112 174.929 163.876 175.165 163.562 175.355C163.249 175.544 162.882 175.639 162.462 175.639C162.03 175.639 161.637 175.532 161.282 175.319C160.933 175.106 160.658 174.808 160.456 174.423C160.255 174.039 160.155 173.601 160.155 173.11C160.155 172.613 160.255 172.178 160.456 171.806C160.658 171.427 160.933 171.134 161.282 170.927C161.637 170.72 162.03 170.617 162.462 170.617ZM164.272 173.119C164.272 172.752 164.198 172.433 164.05 172.16C163.902 171.888 163.701 171.681 163.447 171.539C163.198 171.391 162.923 171.317 162.622 171.317C162.32 171.317 162.045 171.388 161.796 171.53C161.548 171.672 161.35 171.879 161.202 172.152C161.054 172.424 160.98 172.743 160.98 173.11C160.98 173.483 161.054 173.808 161.202 174.086C161.35 174.358 161.548 174.568 161.796 174.716C162.045 174.858 162.32 174.929 162.622 174.929C162.923 174.929 163.198 174.858 163.447 174.716C163.701 174.568 163.902 174.358 164.05 174.086C164.198 173.808 164.272 173.485 164.272 173.119ZM170.534 172.941C170.534 173.095 170.526 173.258 170.508 173.429H166.621C166.651 173.908 166.814 174.284 167.109 174.556C167.411 174.822 167.775 174.955 168.201 174.955C168.55 174.955 168.84 174.876 169.07 174.716C169.307 174.55 169.473 174.331 169.567 174.059H170.437C170.307 174.527 170.046 174.908 169.656 175.204C169.266 175.494 168.78 175.639 168.201 175.639C167.739 175.639 167.325 175.535 166.959 175.328C166.598 175.121 166.314 174.828 166.107 174.45C165.9 174.065 165.796 173.622 165.796 173.119C165.796 172.616 165.897 172.175 166.098 171.797C166.299 171.418 166.58 171.128 166.941 170.927C167.308 170.72 167.728 170.617 168.201 170.617C168.662 170.617 169.07 170.717 169.425 170.918C169.78 171.119 170.052 171.397 170.242 171.752C170.437 172.101 170.534 172.498 170.534 172.941ZM169.7 172.773C169.7 172.465 169.632 172.202 169.496 171.983C169.36 171.758 169.174 171.59 168.937 171.477C168.707 171.359 168.449 171.3 168.165 171.3C167.757 171.3 167.408 171.43 167.118 171.69C166.834 171.95 166.672 172.311 166.63 172.773H169.7Z" fill="#B5B5B5"/>
<path d="M138.475 185.929V184.922H140.488V191.979H139.375V185.929H138.475ZM142.614 190.478C143.234 189.943 143.721 189.504 144.076 189.162C144.437 188.813 144.737 188.452 144.976 188.078C145.215 187.704 145.334 187.329 145.334 186.955C145.334 186.568 145.24 186.264 145.053 186.045C144.873 185.826 144.585 185.716 144.192 185.716C143.811 185.716 143.514 185.839 143.301 186.084C143.095 186.323 142.985 186.645 142.972 187.052H141.907C141.927 186.316 142.146 185.755 142.566 185.367C142.992 184.974 143.53 184.777 144.182 184.777C144.886 184.777 145.434 184.971 145.828 185.358C146.228 185.745 146.428 186.261 146.428 186.907C146.428 187.371 146.308 187.82 146.07 188.252C145.837 188.678 145.557 189.062 145.228 189.404C144.905 189.74 144.492 190.13 143.989 190.575L143.553 190.962H146.621V191.882H141.917V191.079L142.614 190.478ZM151.385 186.558C151.314 186.261 151.185 186.039 150.998 185.89C150.811 185.742 150.55 185.668 150.214 185.668C149.704 185.668 149.324 185.864 149.072 186.258C148.82 186.645 148.688 187.291 148.675 188.194C148.843 187.91 149.088 187.691 149.411 187.536C149.733 187.381 150.082 187.303 150.456 187.303C150.882 187.303 151.256 187.397 151.579 187.584C151.908 187.765 152.163 188.029 152.344 188.378C152.531 188.726 152.624 189.143 152.624 189.627C152.624 190.078 152.534 190.482 152.353 190.837C152.179 191.191 151.918 191.472 151.569 191.679C151.221 191.879 150.801 191.979 150.311 191.979C149.646 191.979 149.124 191.834 148.743 191.543C148.368 191.246 148.104 190.83 147.949 190.294C147.801 189.759 147.726 189.091 147.726 188.291C147.726 185.929 148.559 184.748 150.224 184.748C150.869 184.748 151.376 184.922 151.743 185.271C152.118 185.619 152.337 186.048 152.402 186.558H151.385ZM150.214 188.233C149.82 188.233 149.485 188.352 149.207 188.591C148.936 188.823 148.801 189.162 148.801 189.607C148.801 190.052 148.927 190.407 149.178 190.672C149.436 190.93 149.795 191.059 150.253 191.059C150.659 191.059 150.979 190.933 151.211 190.682C151.45 190.43 151.569 190.094 151.569 189.675C151.569 189.236 151.453 188.888 151.221 188.63C150.995 188.365 150.659 188.233 150.214 188.233ZM154.992 188.291C154.321 187.955 153.985 187.426 153.985 186.703C153.985 186.355 154.072 186.035 154.247 185.745C154.421 185.455 154.682 185.226 155.031 185.058C155.379 184.883 155.805 184.796 156.308 184.796C156.805 184.796 157.228 184.883 157.577 185.058C157.931 185.226 158.196 185.455 158.37 185.745C158.545 186.035 158.632 186.355 158.632 186.703C158.632 187.065 158.538 187.384 158.351 187.662C158.17 187.933 157.928 188.142 157.625 188.291C157.993 188.426 158.283 188.649 158.496 188.959C158.709 189.262 158.816 189.62 158.816 190.033C158.816 190.453 158.709 190.824 158.496 191.146C158.283 191.469 157.986 191.717 157.606 191.892C157.225 192.066 156.792 192.153 156.308 192.153C155.825 192.153 155.392 192.066 155.011 191.892C154.637 191.717 154.343 191.469 154.131 191.146C153.918 190.824 153.811 190.453 153.811 190.033C153.811 189.614 153.918 189.252 154.131 188.949C154.343 188.646 154.631 188.426 154.992 188.291ZM157.577 186.839C157.577 186.477 157.464 186.2 157.238 186.006C157.012 185.813 156.702 185.716 156.308 185.716C155.921 185.716 155.615 185.813 155.389 186.006C155.163 186.2 155.05 186.481 155.05 186.848C155.05 187.171 155.166 187.436 155.399 187.642C155.637 187.842 155.941 187.942 156.308 187.942C156.676 187.942 156.98 187.839 157.218 187.633C157.457 187.426 157.577 187.161 157.577 186.839ZM156.308 188.775C155.883 188.775 155.534 188.881 155.263 189.094C154.998 189.301 154.866 189.601 154.866 189.994C154.866 190.362 154.995 190.662 155.253 190.895C155.512 191.12 155.863 191.233 156.308 191.233C156.747 191.233 157.093 191.117 157.344 190.885C157.602 190.653 157.731 190.356 157.731 189.994C157.731 189.607 157.599 189.307 157.335 189.094C157.076 188.881 156.734 188.775 156.308 188.775ZM162.23 189.317L164.688 191.979H163.198L161.223 189.685V191.979H160.119V184.816H161.223V188.978L163.159 186.645H164.688L162.23 189.317ZM171.936 186.558C172.355 186.558 172.729 186.645 173.058 186.819C173.394 186.994 173.655 187.252 173.842 187.594C174.036 187.936 174.133 188.349 174.133 188.833V191.979H173.039V188.997C173.039 188.52 172.92 188.155 172.681 187.904C172.442 187.645 172.116 187.516 171.703 187.516C171.29 187.516 170.961 187.645 170.716 187.904C170.477 188.155 170.358 188.52 170.358 188.997V191.979H169.264V188.997C169.264 188.52 169.145 188.155 168.906 187.904C168.667 187.645 168.341 187.516 167.928 187.516C167.515 187.516 167.186 187.645 166.941 187.904C166.702 188.155 166.583 188.52 166.583 188.997V191.979H165.479V186.645H166.583V187.255C166.763 187.036 166.992 186.865 167.27 186.742C167.547 186.619 167.844 186.558 168.16 186.558C168.586 186.558 168.967 186.648 169.303 186.829C169.638 187.01 169.896 187.271 170.077 187.613C170.238 187.291 170.49 187.036 170.832 186.848C171.174 186.655 171.542 186.558 171.936 186.558Z" fill="#073335"/>
<path d="M217.938 69.8154V70.4721H215.249V72.5572H217.432V73.2138H215.249V76H214.442V69.8154H217.938ZM222.87 71.1375V76H222.063V75.2813C221.909 75.5297 221.693 75.7249 221.415 75.8669C221.143 76.003 220.841 76.071 220.51 76.071C220.131 76.071 219.791 75.9941 219.489 75.8403C219.188 75.6806 218.948 75.444 218.771 75.1304C218.599 74.8169 218.513 74.4354 218.513 73.9858V71.1375H219.312V73.8793C219.312 74.3585 219.433 74.7282 219.676 74.9885C219.918 75.2428 220.25 75.37 220.67 75.37C221.101 75.37 221.442 75.2369 221.69 74.9707C221.938 74.7045 222.063 74.3171 222.063 73.8083V71.1375H222.87ZM228.315 73.3824C228.315 73.5362 228.306 73.6989 228.289 73.8705H224.402C224.432 74.3496 224.594 74.7252 224.89 74.9973C225.192 75.2635 225.556 75.3966 225.981 75.3966C226.331 75.3966 226.62 75.3168 226.851 75.1571C227.088 74.9914 227.253 74.7726 227.348 74.5004H228.218C228.087 74.9678 227.827 75.3493 227.437 75.6451C227.046 75.9349 226.561 76.0799 225.981 76.0799C225.52 76.0799 225.106 75.9763 224.739 75.7693C224.378 75.5623 224.094 75.2694 223.887 74.8909C223.68 74.5064 223.577 74.0627 223.577 73.5599C223.577 73.0571 223.677 72.6164 223.879 72.2378C224.08 71.8592 224.361 71.5694 224.722 71.3682C225.088 71.1612 225.508 71.0577 225.981 71.0577C226.443 71.0577 226.851 71.1582 227.206 71.3594C227.561 71.5605 227.833 71.8385 228.022 72.1934C228.218 72.5424 228.315 72.9388 228.315 73.3824ZM227.481 73.2138C227.481 72.9062 227.413 72.643 227.277 72.4241C227.141 72.1994 226.955 72.0308 226.718 71.9184C226.487 71.8001 226.23 71.7409 225.946 71.7409C225.538 71.7409 225.189 71.871 224.899 72.1313C224.615 72.3916 224.452 72.7524 224.411 73.2138H227.481ZM229.833 69.4339V76H229.026V69.4339H229.833ZM236.672 69.8154V70.4721H234.986V76H234.179V70.4721H232.484V69.8154H236.672ZM241.499 71.1375L238.571 78.2893H237.737L238.695 75.9468L236.734 71.1375H237.63L239.157 75.0772L240.665 71.1375H241.499ZM242.763 72.0337C242.923 71.7557 243.16 71.525 243.473 71.3416C243.793 71.1523 244.162 71.0577 244.582 71.0577C245.014 71.0577 245.404 71.1612 245.753 71.3682C246.108 71.5753 246.386 71.8681 246.588 72.2467C246.789 72.6193 246.889 73.0541 246.889 73.551C246.889 74.042 246.789 74.4797 246.588 74.8642C246.386 75.2487 246.108 75.5475 245.753 75.7604C245.404 75.9734 245.014 76.0799 244.582 76.0799C244.168 76.0799 243.801 75.9882 243.482 75.8048C243.168 75.6155 242.929 75.3818 242.763 75.1038V78.307H241.956V71.1375H242.763V72.0337ZM246.064 73.551C246.064 73.1843 245.99 72.8648 245.842 72.5927C245.694 72.3206 245.493 72.1136 245.239 71.9716C244.99 71.8296 244.715 71.7587 244.414 71.7587C244.118 71.7587 243.843 71.8326 243.588 71.9805C243.34 72.1225 243.139 72.3324 242.985 72.6105C242.837 72.8826 242.763 73.1991 242.763 73.5599C242.763 73.9266 242.837 74.249 242.985 74.5271C243.139 74.7992 243.34 75.0092 243.588 75.1571C243.843 75.299 244.118 75.37 244.414 75.37C244.715 75.37 244.99 75.299 245.239 75.1571C245.493 75.0092 245.694 74.7992 245.842 74.5271C245.99 74.249 246.064 73.9237 246.064 73.551ZM252.034 73.3824C252.034 73.5362 252.025 73.6989 252.007 73.8705H248.121C248.15 74.3496 248.313 74.7252 248.609 74.9973C248.91 75.2635 249.274 75.3966 249.7 75.3966C250.049 75.3966 250.339 75.3168 250.57 75.1571C250.806 74.9914 250.972 74.7726 251.067 74.5004H251.936C251.806 74.9678 251.546 75.3493 251.155 75.6451C250.765 75.9349 250.28 76.0799 249.7 76.0799C249.239 76.0799 248.825 75.9763 248.458 75.7693C248.097 75.5623 247.813 75.2694 247.606 74.8909C247.399 74.5064 247.295 74.0627 247.295 73.5599C247.295 73.0571 247.396 72.6164 247.597 72.2378C247.798 71.8592 248.079 71.5694 248.44 71.3682C248.807 71.1612 249.227 71.0577 249.7 71.0577C250.161 71.0577 250.57 71.1582 250.925 71.3594C251.28 71.5605 251.552 71.8385 251.741 72.1934C251.936 72.5424 252.034 72.9388 252.034 73.3824ZM251.2 73.2138C251.2 72.9062 251.132 72.643 250.996 72.4241C250.86 72.1994 250.673 72.0308 250.437 71.9184C250.206 71.8001 249.949 71.7409 249.665 71.7409C249.256 71.7409 248.907 71.871 248.618 72.1313C248.334 72.3916 248.171 72.7524 248.13 73.2138H251.2Z" fill="#B5B5B5"/>
<path d="M219.189 87.6962C219.189 88.0382 219.108 88.3609 218.947 88.6642C218.785 88.9675 218.527 89.2159 218.172 89.4095C217.817 89.5967 217.362 89.6902 216.807 89.6902H215.588V92.4199H214.484V85.6925H216.807C217.324 85.6925 217.759 85.7828 218.114 85.9635C218.476 86.1378 218.743 86.3765 218.918 86.6798C219.098 86.9831 219.189 87.3219 219.189 87.6962ZM216.807 88.79C217.227 88.79 217.54 88.6964 217.746 88.5093C217.953 88.3157 218.056 88.0447 218.056 87.6962C218.056 86.9605 217.64 86.5927 216.807 86.5927H215.588V88.79H216.807ZM225.129 89.6225C225.129 89.8225 225.116 90.0032 225.091 90.1645H221.015C221.048 90.5904 221.206 90.9325 221.49 91.1906C221.774 91.4487 222.122 91.5778 222.535 91.5778C223.129 91.5778 223.548 91.3293 223.794 90.8324H224.984C224.823 91.3229 224.529 91.7262 224.103 92.0424C223.684 92.3522 223.161 92.507 222.535 92.507C222.025 92.507 221.567 92.3941 221.161 92.1682C220.761 91.9359 220.444 91.6133 220.212 91.2003C219.986 90.7808 219.873 90.2968 219.873 89.7483C219.873 89.1998 219.983 88.719 220.202 88.306C220.428 87.8866 220.741 87.5639 221.141 87.338C221.548 87.1122 222.012 86.9993 222.535 86.9993C223.039 86.9993 223.487 87.109 223.881 87.3284C224.274 87.5478 224.581 87.8575 224.8 88.2576C225.02 88.6513 225.129 89.1062 225.129 89.6225ZM223.977 89.274C223.971 88.8675 223.826 88.5416 223.542 88.2963C223.258 88.0511 222.906 87.9285 222.487 87.9285C222.106 87.9285 221.78 88.0511 221.509 88.2963C221.238 88.5351 221.077 88.861 221.025 89.274H223.977ZM227.503 87.9866V90.9389C227.503 91.139 227.548 91.2842 227.638 91.3745C227.735 91.4584 227.896 91.5003 228.122 91.5003H228.8V92.4199H227.929C227.432 92.4199 227.051 92.3038 226.786 92.0715C226.522 91.8391 226.39 91.4616 226.39 90.9389V87.9866H225.76V87.0864H226.39V85.7602H227.503V87.0864H228.8V87.9866H227.503ZM230.92 87.8608C231.082 87.5897 231.295 87.38 231.559 87.2316C231.83 87.0767 232.15 86.9993 232.518 86.9993V88.1415H232.237C231.804 88.1415 231.475 88.2512 231.249 88.4706C231.03 88.69 230.92 89.0707 230.92 89.6128V92.4199H229.817V87.0864H230.92V87.8608ZM235.845 92.507C235.342 92.507 234.887 92.3941 234.48 92.1682C234.074 91.9359 233.754 91.6133 233.522 91.2003C233.29 90.7808 233.174 90.2968 233.174 89.7483C233.174 89.2062 233.293 88.7255 233.532 88.306C233.771 87.8866 234.097 87.5639 234.51 87.338C234.923 87.1122 235.384 86.9993 235.894 86.9993C236.404 86.9993 236.865 87.1122 237.278 87.338C237.691 87.5639 238.017 87.8866 238.256 88.306C238.494 88.7255 238.614 89.2062 238.614 89.7483C238.614 90.2904 238.491 90.7711 238.246 91.1906C238.001 91.61 237.665 91.9359 237.239 92.1682C236.82 92.3941 236.355 92.507 235.845 92.507ZM235.845 91.5487C236.129 91.5487 236.394 91.481 236.639 91.3455C236.891 91.21 237.094 91.0067 237.249 90.7356C237.404 90.4646 237.481 90.1355 237.481 89.7483C237.481 89.3611 237.407 89.0352 237.259 88.7707C237.11 88.4996 236.913 88.2963 236.668 88.1608C236.423 88.0253 236.158 87.9576 235.874 87.9576C235.59 87.9576 235.326 88.0253 235.081 88.1608C234.842 88.2963 234.651 88.4996 234.51 88.7707C234.368 89.0352 234.297 89.3611 234.297 89.7483C234.297 90.3226 234.442 90.7679 234.732 91.0841C235.029 91.3939 235.4 91.5487 235.845 91.5487ZM240.808 85.2569V92.4199H239.705V85.2569H240.808Z" fill="#073335"/>
<path d="M218.248 119.595V120.252H216.562V125.78H215.755V120.252H214.06V119.595H218.248ZM219.695 121.707C219.837 121.429 220.038 121.213 220.298 121.059C220.564 120.905 220.887 120.828 221.265 120.828V121.662H221.052C220.147 121.662 219.695 122.153 219.695 123.135V125.78H218.887V120.917H219.695V121.707ZM221.541 123.331C221.541 122.834 221.641 122.399 221.842 122.026C222.043 121.648 222.318 121.355 222.667 121.148C223.022 120.941 223.416 120.837 223.848 120.837C224.273 120.837 224.643 120.929 224.957 121.112C225.27 121.296 225.504 121.526 225.658 121.804V120.917H226.474V125.78H225.658V124.874C225.498 125.158 225.258 125.395 224.939 125.584C224.625 125.768 224.259 125.859 223.839 125.859C223.407 125.859 223.016 125.753 222.667 125.54C222.318 125.327 222.043 125.028 221.842 124.644C221.641 124.259 221.541 123.822 221.541 123.331ZM225.658 123.339C225.658 122.973 225.584 122.653 225.436 122.381C225.288 122.109 225.087 121.902 224.832 121.76C224.584 121.612 224.309 121.538 224.007 121.538C223.706 121.538 223.431 121.609 223.182 121.751C222.934 121.893 222.735 122.1 222.588 122.372C222.44 122.644 222.366 122.964 222.366 123.331C222.366 123.703 222.44 124.029 222.588 124.307C222.735 124.579 222.934 124.789 223.182 124.937C223.431 125.079 223.706 125.15 224.007 125.15C224.309 125.15 224.584 125.079 224.832 124.937C225.087 124.789 225.288 124.579 225.436 124.307C225.584 124.029 225.658 123.706 225.658 123.339ZM229.853 120.828C230.444 120.828 230.923 121.009 231.29 121.37C231.657 121.725 231.84 122.239 231.84 122.914V125.78H231.042V123.029C231.042 122.544 230.92 122.174 230.678 121.92C230.435 121.659 230.104 121.529 229.684 121.529C229.258 121.529 228.918 121.662 228.664 121.929C228.415 122.195 228.291 122.582 228.291 123.091V125.78H227.484V120.917H228.291V121.609C228.451 121.361 228.667 121.168 228.939 121.032C229.217 120.896 229.521 120.828 229.853 120.828ZM234.526 125.859C234.153 125.859 233.819 125.797 233.523 125.673C233.227 125.543 232.994 125.365 232.822 125.141C232.651 124.91 232.556 124.647 232.538 124.351H233.372C233.396 124.594 233.508 124.792 233.709 124.945C233.916 125.099 234.186 125.176 234.517 125.176C234.824 125.176 235.067 125.108 235.244 124.972C235.422 124.836 235.511 124.664 235.511 124.457C235.511 124.244 235.416 124.088 235.227 123.987C235.037 123.881 234.745 123.777 234.348 123.677C233.987 123.582 233.692 123.487 233.461 123.393C233.236 123.292 233.041 123.147 232.875 122.958C232.716 122.763 232.636 122.508 232.636 122.195C232.636 121.946 232.71 121.719 232.858 121.512C233.005 121.305 233.215 121.142 233.488 121.024C233.76 120.899 234.07 120.837 234.419 120.837C234.958 120.837 235.392 120.973 235.724 121.245C236.055 121.517 236.232 121.89 236.256 122.363H235.449C235.431 122.109 235.327 121.905 235.138 121.751C234.955 121.597 234.706 121.52 234.393 121.52C234.103 121.52 233.872 121.583 233.701 121.707C233.529 121.831 233.443 121.994 233.443 122.195C233.443 122.355 233.494 122.488 233.594 122.594C233.701 122.695 233.831 122.777 233.984 122.843C234.144 122.902 234.363 122.97 234.641 123.047C234.99 123.141 235.274 123.236 235.493 123.331C235.712 123.419 235.898 123.555 236.052 123.739C236.212 123.922 236.294 124.162 236.3 124.457C236.3 124.724 236.226 124.963 236.079 125.176C235.931 125.389 235.721 125.558 235.449 125.682C235.182 125.8 234.875 125.859 234.526 125.859ZM242.933 120.828C243.311 120.828 243.648 120.908 243.944 121.068C244.24 121.222 244.474 121.455 244.645 121.769C244.817 122.082 244.903 122.464 244.903 122.914V125.78H244.104V123.029C244.104 122.544 243.983 122.174 243.74 121.92C243.504 121.659 243.181 121.529 242.773 121.529C242.353 121.529 242.019 121.665 241.77 121.937C241.522 122.204 241.398 122.591 241.398 123.1V125.78H240.599V123.029C240.599 122.544 240.478 122.174 240.235 121.92C239.999 121.659 239.676 121.529 239.268 121.529C238.848 121.529 238.514 121.665 238.265 121.937C238.017 122.204 237.893 122.591 237.893 123.1V125.78H237.085V120.917H237.893V121.618C238.052 121.364 238.265 121.168 238.532 121.032C238.804 120.896 239.102 120.828 239.428 120.828C239.836 120.828 240.197 120.92 240.51 121.103C240.824 121.287 241.057 121.556 241.211 121.911C241.347 121.568 241.572 121.302 241.886 121.112C242.199 120.923 242.548 120.828 242.933 120.828ZM246.289 120.127C246.135 120.127 246.005 120.074 245.899 119.968C245.792 119.861 245.739 119.731 245.739 119.577C245.739 119.423 245.792 119.293 245.899 119.187C246.005 119.08 246.135 119.027 246.289 119.027C246.437 119.027 246.561 119.08 246.662 119.187C246.768 119.293 246.822 119.423 246.822 119.577C246.822 119.731 246.768 119.861 246.662 119.968C246.561 120.074 246.437 120.127 246.289 120.127ZM246.68 120.917V125.78H245.872V120.917H246.68ZM249.422 125.859C249.05 125.859 248.715 125.797 248.42 125.673C248.124 125.543 247.89 125.365 247.719 125.141C247.547 124.91 247.452 124.647 247.435 124.351H248.269C248.292 124.594 248.405 124.792 248.606 124.945C248.813 125.099 249.082 125.176 249.413 125.176C249.721 125.176 249.963 125.108 250.141 124.972C250.318 124.836 250.407 124.664 250.407 124.457C250.407 124.244 250.312 124.088 250.123 123.987C249.934 123.881 249.641 123.777 249.245 123.677C248.884 123.582 248.588 123.487 248.357 123.393C248.133 123.292 247.937 123.147 247.772 122.958C247.612 122.763 247.532 122.508 247.532 122.195C247.532 121.946 247.606 121.719 247.754 121.512C247.902 121.305 248.112 121.142 248.384 121.024C248.656 120.899 248.967 120.837 249.316 120.837C249.854 120.837 250.289 120.973 250.62 121.245C250.951 121.517 251.129 121.89 251.152 122.363H250.345C250.327 122.109 250.224 121.905 250.034 121.751C249.851 121.597 249.603 121.52 249.289 121.52C248.999 121.52 248.769 121.583 248.597 121.707C248.425 121.831 248.34 121.994 248.34 122.195C248.34 122.355 248.39 122.488 248.491 122.594C248.597 122.695 248.727 122.777 248.881 122.843C249.041 122.902 249.26 122.97 249.538 123.047C249.887 123.141 250.17 123.236 250.389 123.331C250.608 123.419 250.795 123.555 250.948 123.739C251.108 123.922 251.191 124.162 251.197 124.457C251.197 124.724 251.123 124.963 250.975 125.176C250.827 125.389 250.617 125.558 250.345 125.682C250.079 125.8 249.771 125.859 249.422 125.859ZM253.703 125.859C253.33 125.859 252.996 125.797 252.7 125.673C252.405 125.543 252.171 125.365 251.999 125.141C251.828 124.91 251.733 124.647 251.716 124.351H252.55C252.573 124.594 252.686 124.792 252.887 124.945C253.094 125.099 253.363 125.176 253.694 125.176C254.002 125.176 254.244 125.108 254.422 124.972C254.599 124.836 254.688 124.664 254.688 124.457C254.688 124.244 254.593 124.088 254.404 123.987C254.215 123.881 253.922 123.777 253.526 123.677C253.165 123.582 252.869 123.487 252.638 123.393C252.414 123.292 252.218 123.147 252.053 122.958C251.893 122.763 251.813 122.508 251.813 122.195C251.813 121.946 251.887 121.719 252.035 121.512C252.183 121.305 252.393 121.142 252.665 121.024C252.937 120.899 253.248 120.837 253.597 120.837C254.135 120.837 254.57 120.973 254.901 121.245C255.232 121.517 255.41 121.89 255.433 122.363H254.626C254.608 122.109 254.505 121.905 254.315 121.751C254.132 121.597 253.884 121.52 253.57 121.52C253.28 121.52 253.049 121.583 252.878 121.707C252.706 121.831 252.621 121.994 252.621 122.195C252.621 122.355 252.671 122.488 252.771 122.594C252.878 122.695 253.008 122.777 253.162 122.843C253.322 122.902 253.54 122.97 253.818 123.047C254.167 123.141 254.451 123.236 254.67 123.331C254.889 123.419 255.075 123.555 255.229 123.739C255.389 123.922 255.472 124.162 255.478 124.457C255.478 124.724 255.404 124.963 255.256 125.176C255.108 125.389 254.898 125.558 254.626 125.682C254.36 125.8 254.052 125.859 253.703 125.859ZM256.68 120.127C256.526 120.127 256.396 120.074 256.289 119.968C256.183 119.861 256.13 119.731 256.13 119.577C256.13 119.423 256.183 119.293 256.289 119.187C256.396 119.08 256.526 119.027 256.68 119.027C256.828 119.027 256.952 119.08 257.052 119.187C257.159 119.293 257.212 119.423 257.212 119.577C257.212 119.731 257.159 119.861 257.052 119.968C256.952 120.074 256.828 120.127 256.68 120.127ZM257.07 120.917V125.78H256.263V120.917H257.07ZM260.212 125.859C259.757 125.859 259.342 125.756 258.97 125.549C258.603 125.342 258.313 125.049 258.1 124.67C257.893 124.286 257.79 123.842 257.79 123.339C257.79 122.843 257.896 122.405 258.109 122.026C258.328 121.642 258.624 121.349 258.996 121.148C259.369 120.941 259.786 120.837 260.248 120.837C260.709 120.837 261.126 120.941 261.499 121.148C261.871 121.349 262.164 121.639 262.377 122.017C262.596 122.396 262.705 122.837 262.705 123.339C262.705 123.842 262.593 124.286 262.368 124.67C262.149 125.049 261.851 125.342 261.472 125.549C261.093 125.756 260.673 125.859 260.212 125.859ZM260.212 125.15C260.502 125.15 260.774 125.082 261.028 124.945C261.283 124.809 261.487 124.605 261.641 124.333C261.8 124.061 261.88 123.73 261.88 123.339C261.88 122.949 261.803 122.618 261.649 122.346C261.496 122.074 261.295 121.872 261.046 121.742C260.798 121.606 260.528 121.538 260.239 121.538C259.943 121.538 259.671 121.606 259.422 121.742C259.18 121.872 258.985 122.074 258.837 122.346C258.689 122.618 258.615 122.949 258.615 123.339C258.615 123.736 258.686 124.07 258.828 124.342C258.976 124.614 259.171 124.818 259.413 124.954C259.656 125.084 259.922 125.15 260.212 125.15ZM265.781 120.828C266.373 120.828 266.852 121.009 267.219 121.37C267.585 121.725 267.769 122.239 267.769 122.914V125.78H266.97V123.029C266.97 122.544 266.849 122.174 266.606 121.92C266.364 121.659 266.033 121.529 265.613 121.529C265.187 121.529 264.847 121.662 264.592 121.929C264.344 122.195 264.22 122.582 264.22 123.091V125.78H263.412V120.917H264.22V121.609C264.379 121.361 264.595 121.168 264.867 121.032C265.145 120.896 265.45 120.828 265.781 120.828Z" fill="#B5B5B5"/>
<path d="M218.54 140.825H215.723L215.239 142.199H214.087L216.498 135.462H217.775L220.186 142.199H219.024L218.54 140.825ZM218.23 139.925L217.137 136.798L216.033 139.925H218.23ZM226.064 136.866V142.199H224.96V141.57C224.786 141.79 224.557 141.964 224.273 142.093C223.996 142.216 223.699 142.277 223.383 142.277C222.963 142.277 222.586 142.19 222.25 142.016C221.921 141.841 221.66 141.583 221.466 141.241C221.279 140.899 221.185 140.486 221.185 140.002V136.866H222.279V139.838C222.279 140.315 222.398 140.683 222.637 140.941C222.876 141.193 223.202 141.319 223.615 141.319C224.028 141.319 224.354 141.193 224.593 140.941C224.838 140.683 224.96 140.315 224.96 139.838V136.866H226.064ZM228.807 137.766V140.718C228.807 140.919 228.852 141.064 228.943 141.154C229.04 141.238 229.201 141.28 229.427 141.28H230.104V142.199H229.233C228.736 142.199 228.356 142.083 228.091 141.851C227.826 141.619 227.694 141.241 227.694 140.718V137.766H227.065V136.866H227.694V135.54H228.807V136.866H230.104V137.766H228.807ZM233.435 142.287C232.931 142.287 232.477 142.174 232.07 141.948C231.663 141.715 231.344 141.393 231.112 140.98C230.879 140.56 230.763 140.076 230.763 139.528C230.763 138.986 230.883 138.505 231.121 138.086C231.36 137.666 231.686 137.343 232.099 137.118C232.512 136.892 232.973 136.779 233.483 136.779C233.993 136.779 234.454 136.892 234.867 137.118C235.28 137.343 235.606 137.666 235.845 138.086C236.084 138.505 236.203 138.986 236.203 139.528C236.203 140.07 236.081 140.551 235.835 140.97C235.59 141.39 235.255 141.715 234.829 141.948C234.409 142.174 233.945 142.287 233.435 142.287ZM233.435 141.328C233.719 141.328 233.983 141.261 234.229 141.125C234.48 140.989 234.684 140.786 234.838 140.515C234.993 140.244 235.071 139.915 235.071 139.528C235.071 139.141 234.996 138.815 234.848 138.55C234.7 138.279 234.503 138.076 234.258 137.94C234.012 137.805 233.748 137.737 233.464 137.737C233.18 137.737 232.915 137.805 232.67 137.94C232.431 138.076 232.241 138.279 232.099 138.55C231.957 138.815 231.886 139.141 231.886 139.528C231.886 140.102 232.031 140.547 232.322 140.864C232.619 141.173 232.99 141.328 233.435 141.328ZM243.751 136.779C244.17 136.779 244.544 136.866 244.873 137.04C245.209 137.214 245.47 137.473 245.657 137.815C245.851 138.157 245.948 138.57 245.948 139.054V142.199H244.854V139.218C244.854 138.741 244.735 138.376 244.496 138.124C244.257 137.866 243.931 137.737 243.518 137.737C243.105 137.737 242.776 137.866 242.531 138.124C242.292 138.376 242.173 138.741 242.173 139.218V142.199H241.079V139.218C241.079 138.741 240.96 138.376 240.721 138.124C240.482 137.866 240.156 137.737 239.743 137.737C239.33 137.737 239.001 137.866 238.756 138.124C238.517 138.376 238.398 138.741 238.398 139.218V142.199H237.294V136.866H238.398V137.476C238.578 137.256 238.807 137.085 239.085 136.963C239.362 136.84 239.659 136.779 239.975 136.779C240.401 136.779 240.782 136.869 241.118 137.05C241.453 137.231 241.711 137.492 241.892 137.834C242.053 137.511 242.305 137.256 242.647 137.069C242.989 136.876 243.357 136.779 243.751 136.779ZM246.984 139.508C246.984 138.973 247.094 138.499 247.313 138.086C247.539 137.673 247.842 137.353 248.223 137.127C248.61 136.895 249.036 136.779 249.501 136.779C249.92 136.779 250.285 136.863 250.595 137.03C250.911 137.192 251.163 137.395 251.35 137.64V136.866H252.463V142.199H251.35V141.406C251.163 141.657 250.908 141.867 250.585 142.035C250.262 142.203 249.895 142.287 249.482 142.287C249.023 142.287 248.604 142.17 248.223 141.938C247.842 141.699 247.539 141.37 247.313 140.951C247.094 140.525 246.984 140.044 246.984 139.508ZM251.35 139.528C251.35 139.16 251.272 138.841 251.117 138.57C250.969 138.299 250.772 138.092 250.527 137.95C250.282 137.808 250.017 137.737 249.733 137.737C249.449 137.737 249.185 137.808 248.939 137.95C248.694 138.086 248.494 138.289 248.339 138.56C248.191 138.824 248.117 139.141 248.117 139.508C248.117 139.876 248.191 140.199 248.339 140.476C248.494 140.754 248.694 140.967 248.939 141.115C249.191 141.257 249.456 141.328 249.733 141.328C250.017 141.328 250.282 141.257 250.527 141.115C250.772 140.973 250.969 140.767 251.117 140.496C251.272 140.218 251.35 139.896 251.35 139.528ZM255.2 137.766V140.718C255.2 140.919 255.245 141.064 255.335 141.154C255.432 141.238 255.593 141.28 255.819 141.28H256.497V142.199H255.626C255.129 142.199 254.748 142.083 254.483 141.851C254.219 141.619 254.087 141.241 254.087 140.718V137.766H253.457V136.866H254.087V135.54H255.2V136.866H256.497V137.766H255.2ZM258.075 136.159C257.875 136.159 257.707 136.092 257.572 135.956C257.436 135.821 257.369 135.653 257.369 135.453C257.369 135.253 257.436 135.085 257.572 134.949C257.707 134.814 257.875 134.746 258.075 134.746C258.269 134.746 258.433 134.814 258.569 134.949C258.704 135.085 258.772 135.253 258.772 135.453C258.772 135.653 258.704 135.821 258.569 135.956C258.433 136.092 258.269 136.159 258.075 136.159ZM258.617 136.866V142.199H257.514V136.866H258.617ZM259.698 139.528C259.698 138.979 259.808 138.499 260.027 138.086C260.253 137.666 260.563 137.343 260.957 137.118C261.35 136.892 261.802 136.779 262.312 136.779C262.957 136.779 263.49 136.934 263.909 137.243C264.335 137.547 264.622 137.982 264.77 138.55H263.58C263.483 138.286 263.328 138.079 263.115 137.931C262.902 137.782 262.634 137.708 262.312 137.708C261.86 137.708 261.499 137.869 261.228 138.192C260.963 138.508 260.831 138.954 260.831 139.528C260.831 140.102 260.963 140.551 261.228 140.873C261.499 141.196 261.86 141.357 262.312 141.357C262.951 141.357 263.373 141.077 263.58 140.515H264.77C264.616 141.057 264.325 141.49 263.899 141.812C263.473 142.128 262.944 142.287 262.312 142.287C261.802 142.287 261.35 142.174 260.957 141.948C260.563 141.715 260.253 141.393 260.027 140.98C259.808 140.56 259.698 140.076 259.698 139.528Z" fill="#073335"/>
<path d="M217.698 175.559L216.225 173.03H215.249V175.559H214.442V169.374H216.438C216.905 169.374 217.299 169.454 217.618 169.614C217.943 169.774 218.186 169.989 218.346 170.262C218.505 170.534 218.585 170.844 218.585 171.193C218.585 171.619 218.461 171.995 218.213 172.32C217.97 172.645 217.603 172.861 217.112 172.968L218.665 175.559H217.698ZM215.249 172.382H216.438C216.876 172.382 217.204 172.276 217.423 172.063C217.642 171.844 217.751 171.554 217.751 171.193C217.751 170.827 217.642 170.543 217.423 170.341C217.21 170.14 216.882 170.04 216.438 170.04H215.249V172.382ZM223.922 172.941C223.922 173.095 223.913 173.258 223.895 173.429H220.009C220.038 173.908 220.201 174.284 220.497 174.556C220.798 174.822 221.162 174.955 221.588 174.955C221.937 174.955 222.227 174.876 222.457 174.716C222.694 174.55 222.86 174.331 222.954 174.059H223.824C223.694 174.527 223.434 174.908 223.043 175.204C222.653 175.494 222.168 175.639 221.588 175.639C221.127 175.639 220.712 175.535 220.346 175.328C219.985 175.121 219.701 174.828 219.494 174.45C219.287 174.065 219.183 173.622 219.183 173.119C219.183 172.616 219.284 172.175 219.485 171.797C219.686 171.418 219.967 171.128 220.328 170.927C220.695 170.72 221.115 170.617 221.588 170.617C222.049 170.617 222.457 170.717 222.812 170.918C223.167 171.119 223.439 171.397 223.629 171.752C223.824 172.101 223.922 172.498 223.922 172.941ZM223.087 172.773C223.087 172.465 223.019 172.202 222.883 171.983C222.747 171.758 222.561 171.59 222.324 171.477C222.094 171.359 221.836 171.3 221.552 171.3C221.144 171.3 220.795 171.43 220.505 171.69C220.221 171.95 220.059 172.311 220.017 172.773H223.087ZM226.638 170.617C227.058 170.617 227.425 170.708 227.738 170.892C228.057 171.075 228.294 171.306 228.448 171.584V170.696H229.264V175.665C229.264 176.109 229.17 176.502 228.98 176.845C228.791 177.194 228.519 177.467 228.164 177.662C227.815 177.857 227.407 177.955 226.939 177.955C226.301 177.955 225.768 177.804 225.342 177.502C224.916 177.2 224.665 176.789 224.588 176.269H225.387C225.475 176.564 225.659 176.801 225.937 176.979C226.215 177.162 226.549 177.254 226.939 177.254C227.383 177.254 227.744 177.115 228.022 176.837C228.306 176.559 228.448 176.168 228.448 175.665V174.645C228.288 174.929 228.052 175.165 227.738 175.355C227.425 175.544 227.058 175.639 226.638 175.639C226.206 175.639 225.813 175.532 225.458 175.319C225.109 175.106 224.834 174.808 224.632 174.423C224.431 174.039 224.331 173.601 224.331 173.11C224.331 172.613 224.431 172.178 224.632 171.806C224.834 171.427 225.109 171.134 225.458 170.927C225.813 170.72 226.206 170.617 226.638 170.617ZM228.448 173.119C228.448 172.752 228.374 172.433 228.226 172.16C228.078 171.888 227.877 171.681 227.623 171.539C227.374 171.391 227.099 171.317 226.797 171.317C226.496 171.317 226.221 171.388 225.972 171.53C225.724 171.672 225.526 171.879 225.378 172.152C225.23 172.424 225.156 172.743 225.156 173.11C225.156 173.483 225.23 173.808 225.378 174.086C225.526 174.358 225.724 174.568 225.972 174.716C226.221 174.858 226.496 174.929 226.797 174.929C227.099 174.929 227.374 174.858 227.623 174.716C227.877 174.568 228.078 174.358 228.226 174.086C228.374 173.808 228.448 173.485 228.448 173.119ZM230.691 169.907C230.537 169.907 230.407 169.853 230.3 169.747C230.194 169.64 230.141 169.51 230.141 169.357C230.141 169.203 230.194 169.073 230.3 168.966C230.407 168.86 230.537 168.806 230.691 168.806C230.839 168.806 230.963 168.86 231.064 168.966C231.17 169.073 231.223 169.203 231.223 169.357C231.223 169.51 231.17 169.64 231.064 169.747C230.963 169.853 230.839 169.907 230.691 169.907ZM231.081 170.696V175.559H230.274V170.696H231.081ZM233.824 175.639C233.451 175.639 233.117 175.577 232.821 175.452C232.525 175.322 232.292 175.145 232.12 174.92C231.949 174.689 231.854 174.426 231.836 174.13H232.67C232.694 174.373 232.806 174.571 233.008 174.725C233.215 174.879 233.484 174.955 233.815 174.955C234.123 174.955 234.365 174.887 234.543 174.751C234.72 174.615 234.809 174.444 234.809 174.237C234.809 174.024 234.714 173.867 234.525 173.766C234.336 173.66 234.043 173.556 233.646 173.456C233.286 173.361 232.99 173.267 232.759 173.172C232.534 173.071 232.339 172.926 232.173 172.737C232.014 172.542 231.934 172.288 231.934 171.974C231.934 171.726 232.008 171.498 232.156 171.291C232.304 171.084 232.514 170.921 232.786 170.803C233.058 170.679 233.368 170.617 233.717 170.617C234.256 170.617 234.69 170.753 235.022 171.025C235.353 171.297 235.53 171.669 235.554 172.143H234.747C234.729 171.888 234.625 171.684 234.436 171.53C234.253 171.377 234.004 171.3 233.691 171.3C233.401 171.3 233.17 171.362 232.999 171.486C232.827 171.61 232.741 171.773 232.741 171.974C232.741 172.134 232.792 172.267 232.892 172.373C232.999 172.474 233.129 172.557 233.283 172.622C233.442 172.681 233.661 172.749 233.939 172.826C234.288 172.921 234.572 173.015 234.791 173.11C235.01 173.199 235.196 173.335 235.35 173.518C235.51 173.701 235.593 173.941 235.598 174.237C235.598 174.503 235.525 174.743 235.377 174.955C235.229 175.168 235.019 175.337 234.747 175.461C234.48 175.58 234.173 175.639 233.824 175.639ZM237.368 171.362V174.228C237.368 174.464 237.419 174.633 237.519 174.734C237.62 174.828 237.794 174.876 238.043 174.876H238.637V175.559H237.91C237.46 175.559 237.123 175.455 236.898 175.248C236.673 175.041 236.561 174.701 236.561 174.228V171.362H235.931V170.696H236.561V169.472H237.368V170.696H238.637V171.362H237.368ZM243.697 172.941C243.697 173.095 243.688 173.258 243.671 173.429H239.784C239.814 173.908 239.976 174.284 240.272 174.556C240.574 174.822 240.938 174.955 241.364 174.955C241.713 174.955 242.002 174.876 242.233 174.716C242.47 174.55 242.635 174.331 242.73 174.059H243.6C243.469 174.527 243.209 174.908 242.819 175.204C242.428 175.494 241.943 175.639 241.364 175.639C240.902 175.639 240.488 175.535 240.121 175.328C239.76 175.121 239.477 174.828 239.269 174.45C239.062 174.065 238.959 173.622 238.959 173.119C238.959 172.616 239.059 172.175 239.261 171.797C239.462 171.418 239.743 171.128 240.104 170.927C240.47 170.72 240.89 170.617 241.364 170.617C241.825 170.617 242.233 170.717 242.588 170.918C242.943 171.119 243.215 171.397 243.404 171.752C243.6 172.101 243.697 172.498 243.697 172.941ZM242.863 172.773C242.863 172.465 242.795 172.202 242.659 171.983C242.523 171.758 242.337 171.59 242.1 171.477C241.869 171.359 241.612 171.3 241.328 171.3C240.92 171.3 240.571 171.43 240.281 171.69C239.997 171.95 239.834 172.311 239.793 172.773H242.863ZM245.215 171.486C245.357 171.208 245.559 170.992 245.819 170.838C246.085 170.685 246.407 170.608 246.786 170.608V171.442H246.573C245.668 171.442 245.215 171.933 245.215 172.915V175.559H244.408V170.696H245.215V171.486ZM251.8 172.941C251.8 173.095 251.791 173.258 251.773 173.429H247.887C247.916 173.908 248.079 174.284 248.375 174.556C248.676 174.822 249.04 174.955 249.466 174.955C249.815 174.955 250.105 174.876 250.336 174.716C250.572 174.55 250.738 174.331 250.833 174.059H251.702C251.572 174.527 251.312 174.908 250.921 175.204C250.531 175.494 250.046 175.639 249.466 175.639C249.005 175.639 248.591 175.535 248.224 175.328C247.863 175.121 247.579 174.828 247.372 174.45C247.165 174.065 247.062 173.622 247.062 173.119C247.062 172.616 247.162 172.175 247.363 171.797C247.564 171.418 247.845 171.128 248.206 170.927C248.573 170.72 248.993 170.617 249.466 170.617C249.928 170.617 250.336 170.717 250.691 170.918C251.046 171.119 251.318 171.397 251.507 171.752C251.702 172.101 251.8 172.498 251.8 172.941ZM250.966 172.773C250.966 172.465 250.898 172.202 250.762 171.983C250.626 171.758 250.439 171.59 250.203 171.477C249.972 171.359 249.715 171.3 249.431 171.3C249.022 171.3 248.673 171.43 248.384 171.69C248.1 171.95 247.937 172.311 247.896 172.773H250.966ZM252.209 173.11C252.209 172.613 252.31 172.178 252.511 171.806C252.712 171.427 252.987 171.134 253.336 170.927C253.691 170.72 254.087 170.617 254.525 170.617C254.903 170.617 255.255 170.705 255.581 170.883C255.906 171.054 256.155 171.282 256.326 171.566V168.993H257.142V175.559H256.326V174.645C256.166 174.935 255.93 175.174 255.616 175.364C255.303 175.547 254.936 175.639 254.516 175.639C254.084 175.639 253.691 175.532 253.336 175.319C252.987 175.106 252.712 174.808 252.511 174.423C252.31 174.039 252.209 173.601 252.209 173.11ZM256.326 173.119C256.326 172.752 256.252 172.433 256.104 172.16C255.956 171.888 255.755 171.681 255.501 171.539C255.252 171.391 254.977 171.317 254.676 171.317C254.374 171.317 254.099 171.388 253.85 171.53C253.602 171.672 253.404 171.879 253.256 172.152C253.108 172.424 253.034 172.743 253.034 173.11C253.034 173.483 253.108 173.808 253.256 174.086C253.404 174.358 253.602 174.568 253.85 174.716C254.099 174.858 254.374 174.929 254.676 174.929C254.977 174.929 255.252 174.858 255.501 174.716C255.755 174.568 255.956 174.358 256.104 174.086C256.252 173.808 256.326 173.485 256.326 173.119Z" fill="#B5B5B5"/>
<path d="M219.469 185.251L217.243 189.539V191.979H216.14V189.539L213.903 185.251H215.133L216.691 188.552L218.25 185.251H219.469ZM225.233 189.181C225.233 189.381 225.22 189.562 225.195 189.723H221.119C221.152 190.149 221.31 190.491 221.594 190.749C221.878 191.008 222.226 191.137 222.639 191.137C223.233 191.137 223.652 190.888 223.898 190.391H225.088C224.927 190.882 224.633 191.285 224.207 191.601C223.788 191.911 223.265 192.066 222.639 192.066C222.129 192.066 221.671 191.953 221.265 191.727C220.865 191.495 220.548 191.172 220.316 190.759C220.09 190.34 219.977 189.856 219.977 189.307C219.977 188.759 220.087 188.278 220.306 187.865C220.532 187.445 220.845 187.123 221.245 186.897C221.652 186.671 222.116 186.558 222.639 186.558C223.143 186.558 223.591 186.668 223.985 186.887C224.378 187.107 224.685 187.416 224.904 187.816C225.124 188.21 225.233 188.665 225.233 189.181ZM224.081 188.833C224.075 188.426 223.93 188.1 223.646 187.855C223.362 187.61 223.01 187.487 222.591 187.487C222.21 187.487 221.884 187.61 221.613 187.855C221.342 188.094 221.181 188.42 221.129 188.833H224.081ZM228.255 192.066C227.836 192.066 227.458 191.992 227.123 191.843C226.794 191.688 226.532 191.482 226.339 191.224C226.145 190.959 226.042 190.666 226.029 190.343H227.171C227.19 190.569 227.297 190.759 227.491 190.914C227.691 191.062 227.939 191.137 228.236 191.137C228.546 191.137 228.784 191.079 228.952 190.962C229.126 190.84 229.214 190.685 229.214 190.498C229.214 190.298 229.117 190.149 228.923 190.052C228.736 189.956 228.436 189.849 228.023 189.733C227.623 189.623 227.297 189.517 227.045 189.414C226.794 189.31 226.574 189.152 226.387 188.939C226.206 188.726 226.116 188.446 226.116 188.097C226.116 187.813 226.2 187.555 226.368 187.323C226.535 187.084 226.774 186.897 227.084 186.761C227.4 186.626 227.762 186.558 228.168 186.558C228.775 186.558 229.262 186.713 229.63 187.023C230.004 187.326 230.204 187.742 230.23 188.271H229.126C229.107 188.033 229.01 187.842 228.836 187.7C228.662 187.558 228.426 187.487 228.129 187.487C227.839 187.487 227.616 187.542 227.462 187.652C227.307 187.762 227.229 187.907 227.229 188.087C227.229 188.229 227.281 188.349 227.384 188.446C227.487 188.542 227.613 188.62 227.762 188.678C227.91 188.73 228.129 188.797 228.42 188.881C228.807 188.984 229.123 189.091 229.368 189.201C229.62 189.304 229.836 189.459 230.017 189.665C230.198 189.872 230.291 190.146 230.298 190.488C230.298 190.791 230.214 191.062 230.046 191.301C229.878 191.54 229.639 191.727 229.33 191.863C229.026 191.998 228.668 192.066 228.255 192.066Z" fill="#073335"/>
<rect x="20" y="235.979" width="268.758" height="44" rx="6" fill="#073335"/>
<path d="M135.026 254.743V257.191H137.906V258.307H135.026V260.863H138.266V261.979H133.658V253.627H138.266V254.743H135.026ZM142.783 258.631L144.919 261.979H143.371L141.943 259.735L140.599 261.979H139.171L141.307 258.727L139.171 255.367H140.719L142.147 257.611L143.491 255.367H144.919L142.783 258.631ZM147.307 256.339C147.539 256.035 147.855 255.779 148.255 255.571C148.655 255.363 149.107 255.259 149.611 255.259C150.187 255.259 150.711 255.403 151.183 255.691C151.663 255.971 152.039 256.367 152.311 256.879C152.583 257.391 152.719 257.979 152.719 258.643C152.719 259.307 152.583 259.903 152.311 260.431C152.039 260.951 151.663 261.359 151.183 261.655C150.711 261.943 150.187 262.087 149.611 262.087C149.107 262.087 148.659 261.987 148.267 261.787C147.875 261.579 147.555 261.323 147.307 261.019V265.123H145.939V255.367H147.307V256.339ZM151.327 258.643C151.327 258.187 151.231 257.795 151.039 257.467C150.855 257.131 150.607 256.879 150.295 256.711C149.991 256.535 149.663 256.447 149.311 256.447C148.967 256.447 148.639 256.535 148.327 256.711C148.023 256.887 147.775 257.143 147.583 257.479C147.399 257.815 147.307 258.211 147.307 258.667C147.307 259.123 147.399 259.523 147.583 259.867C147.775 260.203 148.023 260.459 148.327 260.635C148.639 260.811 148.967 260.899 149.311 260.899C149.663 260.899 149.991 260.811 150.295 260.635C150.607 260.451 150.855 260.187 151.039 259.843C151.231 259.499 151.327 259.099 151.327 258.643ZM155.44 253.099V261.979H154.072V253.099H155.44ZM160.104 262.087C159.48 262.087 158.916 261.947 158.412 261.667C157.908 261.379 157.512 260.979 157.224 260.467C156.936 259.947 156.792 259.347 156.792 258.667C156.792 257.995 156.94 257.399 157.236 256.879C157.532 256.359 157.936 255.959 158.448 255.679C158.96 255.399 159.532 255.259 160.164 255.259C160.796 255.259 161.368 255.399 161.88 255.679C162.392 255.959 162.796 256.359 163.092 256.879C163.388 257.399 163.536 257.995 163.536 258.667C163.536 259.339 163.384 259.935 163.08 260.455C162.776 260.975 162.36 261.379 161.832 261.667C161.312 261.947 160.736 262.087 160.104 262.087ZM160.104 260.899C160.456 260.899 160.784 260.815 161.088 260.647C161.4 260.479 161.652 260.227 161.844 259.891C162.036 259.555 162.132 259.147 162.132 258.667C162.132 258.187 162.04 257.783 161.856 257.455C161.672 257.119 161.428 256.867 161.124 256.699C160.82 256.531 160.492 256.447 160.14 256.447C159.788 256.447 159.46 256.531 159.156 256.699C158.86 256.867 158.624 257.119 158.448 257.455C158.272 257.783 158.184 258.187 158.184 258.667C158.184 259.379 158.364 259.931 158.724 260.323C159.092 260.707 159.552 260.899 160.104 260.899ZM166.257 256.327C166.457 255.991 166.721 255.731 167.049 255.547C167.385 255.355 167.781 255.259 168.237 255.259V256.675H167.889C167.353 256.675 166.945 256.811 166.665 257.083C166.393 257.355 166.257 257.827 166.257 258.499V261.979H164.889V255.367H166.257V256.327ZM175.554 258.511C175.554 258.759 175.538 258.983 175.506 259.183H170.454C170.494 259.711 170.69 260.135 171.042 260.455C171.394 260.775 171.826 260.935 172.338 260.935C173.074 260.935 173.594 260.627 173.898 260.011H175.374C175.174 260.619 174.81 261.119 174.282 261.511C173.762 261.895 173.114 262.087 172.338 262.087C171.706 262.087 171.138 261.947 170.634 261.667C170.138 261.379 169.746 260.979 169.458 260.467C169.178 259.947 169.038 259.347 169.038 258.667C169.038 257.987 169.174 257.391 169.446 256.879C169.726 256.359 170.114 255.959 170.61 255.679C171.114 255.399 171.69 255.259 172.338 255.259C172.962 255.259 173.518 255.395 174.006 255.667C174.494 255.939 174.874 256.323 175.146 256.819C175.418 257.307 175.554 257.871 175.554 258.511ZM174.126 258.079C174.118 257.575 173.938 257.171 173.586 256.867C173.234 256.563 172.798 256.411 172.278 256.411C171.806 256.411 171.402 256.563 171.066 256.867C170.73 257.163 170.53 257.567 170.466 258.079H174.126Z" fill="#E4F3F4"/>
<rect x="20" width="82.4286" height="36.3858" rx="18.1929" fill="#073335"/>
<g clip-path="url(#clip0_602_1727)">
<path fill-rule="evenodd" clip-rule="evenodd" d="M36.6568 10.8662C37.4637 9.92286 38.9222 9.92286 39.7291 10.8662L40.073 11.2683C40.2375 11.4606 40.4958 11.5445 40.7419 11.4856L41.2565 11.3625C42.4638 11.0736 43.6438 11.9309 43.7421 13.1683L43.784 13.6958C43.804 13.948 43.9637 14.1678 44.1974 14.2648L44.6861 14.4676C45.8326 14.9435 46.2833 16.3307 45.6355 17.3896L45.3593 17.8409C45.2273 18.0568 45.2273 18.3284 45.3593 18.5442L45.6355 18.9956C46.2833 20.0545 45.8326 21.4417 44.6861 21.9175L44.1974 22.1204C43.9637 22.2174 43.804 22.4371 43.784 22.6894L43.7421 23.2169C43.6438 24.4543 42.4638 25.3116 41.2565 25.0227L40.7419 24.8996C40.4958 24.8407 40.2375 24.9246 40.073 25.1169L39.7291 25.519C38.9222 26.4623 37.4637 26.4623 36.6568 25.519L36.3128 25.1169C36.1484 24.9246 35.8901 24.8407 35.644 24.8996L35.1294 25.0227C33.9221 25.3116 32.7421 24.4543 32.6438 23.2169L32.6019 22.6894C32.5819 22.4371 32.4222 22.2174 32.1885 22.1204L31.6998 21.9175C30.5533 21.4417 30.1026 20.0545 30.7504 18.9956L31.0266 18.5442C31.1586 18.3284 31.1586 18.0568 31.0266 17.8409L30.7504 17.3896C30.1026 16.3307 30.5533 14.9435 31.6998 14.4676L32.1885 14.2648C32.4222 14.1678 32.5819 13.948 32.6019 13.6958L32.6438 13.1683C32.7421 11.9309 33.9221 11.0736 35.1294 11.3625L35.644 11.4856C35.8901 11.5445 36.1484 11.4606 36.3128 11.2683L36.6568 10.8662ZM38.705 11.7421C38.436 11.4277 37.9499 11.4277 37.6809 11.7421L37.337 12.1443C36.8436 12.7211 36.0686 12.9729 35.3303 12.7962L34.8157 12.6731C34.4133 12.5768 34.02 12.8626 33.9872 13.275L33.9453 13.8025C33.8852 14.5592 33.4062 15.2185 32.7052 15.5095L32.2164 15.7123C31.8343 15.8709 31.684 16.3333 31.9 16.6863L32.1761 17.1377C32.5723 17.7852 32.5723 18.6 32.1761 19.2475L31.9 19.6989C31.684 20.0519 31.8343 20.5143 32.2164 20.6729L32.7052 20.8757C33.4062 21.1667 33.8852 21.826 33.9453 22.5827L33.9872 23.1101C34.02 23.5226 34.4133 23.8084 34.8157 23.7121L35.3303 23.5889C36.0686 23.4123 36.8436 23.6641 37.337 24.2409L37.6809 24.643C37.9499 24.9575 38.436 24.9575 38.705 24.643L39.0489 24.2409C39.5423 23.6641 40.3173 23.4123 41.0556 23.5889L41.5702 23.7121C41.9726 23.8084 42.3659 23.5226 42.3987 23.1101L42.4406 22.5827C42.5007 21.826 42.9797 21.1667 43.6807 20.8757L44.1695 20.6729C44.5516 20.5143 44.7019 20.0519 44.4859 19.6989L44.2098 19.2475C43.8136 18.6 43.8136 17.7852 44.2098 17.1377L44.4859 16.6863C44.7019 16.3333 44.5516 15.8709 44.1695 15.7123L43.6807 15.5095C42.9797 15.2185 42.5007 14.5592 42.4406 13.8025L42.3987 13.275C42.3659 12.8626 41.9726 12.5768 41.5702 12.6731L41.0556 12.7962C40.3173 12.9729 39.5423 12.7211 39.0489 12.1443L38.705 11.7421Z" fill="white"/>
<path fill-rule="evenodd" clip-rule="evenodd" d="M41.1297 16.297C41.2972 16.4644 41.2972 16.7359 41.1297 16.9034L37.2706 20.7625C37.1032 20.9299 36.8317 20.9299 36.6642 20.7625L34.9491 19.0473C34.7816 18.8799 34.7816 18.6084 34.9491 18.4409C35.1165 18.2735 35.388 18.2735 35.5555 18.4409L36.9674 19.8529L40.5233 16.297C40.6908 16.1295 40.9623 16.1295 41.1297 16.297Z" fill="white" stroke="white" stroke-width="0.673811"/>
</g>
<path d="M50.7561 18.3277C50.7561 17.755 50.8707 17.2563 51.0998 16.8318C51.3289 16.4006 51.6456 16.0671 52.0499 15.8312C52.4609 15.5954 52.9292 15.4775 53.4548 15.4775C54.1353 15.4775 54.6946 15.6426 55.1325 15.9727C55.5773 16.3029 55.8704 16.7611 56.0119 17.3473H55.0214C54.927 17.0104 54.7417 16.7443 54.4655 16.5488C54.1959 16.3534 53.859 16.2557 53.4548 16.2557C52.9292 16.2557 52.5047 16.4377 52.1813 16.8015C51.8578 17.1586 51.6961 17.6674 51.6961 18.3277C51.6961 18.9948 51.8578 19.5102 52.1813 19.8741C52.5047 20.238 52.9292 20.4199 53.4548 20.4199C53.859 20.4199 54.1959 20.3256 54.4655 20.1369C54.735 19.9482 54.9203 19.6787 55.0214 19.3283H56.0119C55.8636 19.8943 55.5671 20.3491 55.1224 20.6928C54.6777 21.0297 54.1218 21.1981 53.4548 21.1981C52.9292 21.1981 52.4609 21.0802 52.0499 20.8444C51.6456 20.6086 51.3289 20.275 51.0998 19.8438C50.8707 19.4125 50.7561 18.9072 50.7561 18.3277ZM62.2927 18.1256C62.2927 18.3008 62.2826 18.4861 62.2624 18.6815H57.8354C57.8691 19.2272 58.0544 19.6551 58.3913 19.9651C58.735 20.2683 59.1493 20.4199 59.6345 20.4199C60.032 20.4199 60.3622 20.3289 60.625 20.147C60.8945 19.9583 61.0832 19.709 61.191 19.3991H62.1815C62.0333 19.9314 61.7368 20.366 61.2921 20.7029C60.8474 21.0331 60.2948 21.1981 59.6345 21.1981C59.1089 21.1981 58.6373 21.0802 58.2195 20.8444C57.8085 20.6086 57.485 20.275 57.2492 19.8438C57.0134 19.4058 56.8955 18.9004 56.8955 18.3277C56.8955 17.755 57.01 17.253 57.2391 16.8217C57.4682 16.3905 57.7883 16.0603 58.1993 15.8312C58.617 15.5954 59.0954 15.4775 59.6345 15.4775C60.1601 15.4775 60.625 15.592 61.0293 15.8211C61.4336 16.0502 61.7435 16.3669 61.9591 16.7712C62.1815 17.1688 62.2927 17.6202 62.2927 18.1256ZM61.3426 17.9335C61.3426 17.5831 61.2651 17.2833 61.1101 17.034C60.9552 16.7779 60.7429 16.5859 60.4734 16.4579C60.2106 16.3231 59.9175 16.2557 59.5941 16.2557C59.1291 16.2557 58.7316 16.404 58.4014 16.7005C58.078 16.9969 57.8927 17.408 57.8455 17.9335H61.3426ZM64.4265 16.468C64.5882 16.1513 64.8173 15.9054 65.1138 15.7302C65.417 15.555 65.7842 15.4674 66.2154 15.4674V16.4175H65.9729C64.9419 16.4175 64.4265 16.9767 64.4265 18.0952V21.1072H63.5067V15.5685H64.4265V16.468ZM68.3991 16.3265V19.5911C68.3991 19.8606 68.4563 20.0527 68.5709 20.1672C68.6854 20.275 68.8842 20.3289 69.1672 20.3289H69.8444V21.1072H69.0156C68.5035 21.1072 68.1194 20.9893 67.8634 20.7534C67.6073 20.5176 67.4793 20.1302 67.4793 19.5911V16.3265H66.7617V15.5685H67.4793V14.1737H68.3991V15.5685H69.8444V16.3265H68.3991ZM71.4338 14.6689C71.2586 14.6689 71.1104 14.6083 70.9891 14.487C70.8678 14.3657 70.8072 14.2175 70.8072 14.0423C70.8072 13.8671 70.8678 13.7188 70.9891 13.5976C71.1104 13.4763 71.2586 13.4156 71.4338 13.4156C71.6023 13.4156 71.7438 13.4763 71.8583 13.5976C71.9796 13.7188 72.0402 13.8671 72.0402 14.0423C72.0402 14.2175 71.9796 14.3657 71.8583 14.487C71.7438 14.6083 71.6023 14.6689 71.4338 14.6689ZM71.8785 15.5685V21.1072H70.9588V15.5685H71.8785ZM75.7 16.3265H74.5377V21.1072H73.6179V16.3265H72.9003V15.5685H73.6179V15.1743C73.6179 14.5544 73.7762 14.1029 74.0929 13.8199C74.4164 13.5302 74.9318 13.3853 75.6393 13.3853V14.1535C75.2351 14.1535 74.9487 14.2343 74.7802 14.396C74.6185 14.551 74.5377 14.8104 74.5377 15.1743V15.5685H75.7V16.3265ZM77.2474 14.6689C77.0722 14.6689 76.924 14.6083 76.8027 14.487C76.6814 14.3657 76.6208 14.2175 76.6208 14.0423C76.6208 13.8671 76.6814 13.7188 76.8027 13.5976C76.924 13.4763 77.0722 13.4156 77.2474 13.4156C77.4159 13.4156 77.5574 13.4763 77.6719 13.5976C77.7932 13.7188 77.8538 13.8671 77.8538 14.0423C77.8538 14.2175 77.7932 14.3657 77.6719 14.487C77.5574 14.6083 77.4159 14.6689 77.2474 14.6689ZM77.6921 15.5685V21.1072H76.7724V15.5685H77.6921ZM84.3133 18.1256C84.3133 18.3008 84.3031 18.4861 84.2829 18.6815H79.856C79.8897 19.2272 80.075 19.6551 80.4119 19.9651C80.7555 20.2683 81.1699 20.4199 81.6551 20.4199C82.0526 20.4199 82.3828 20.3289 82.6456 20.147C82.9151 19.9583 83.1038 19.709 83.2116 19.3991H84.2021C84.0538 19.9314 83.7574 20.366 83.3126 20.7029C82.8679 21.0331 82.3154 21.1981 81.6551 21.1981C81.1295 21.1981 80.6578 21.0802 80.2401 20.8444C79.829 20.6086 79.5056 20.275 79.2698 19.8438C79.0339 19.4058 78.916 18.9004 78.916 18.3277C78.916 17.755 79.0306 17.253 79.2597 16.8217C79.4888 16.3905 79.8088 16.0603 80.2199 15.8312C80.6376 15.5954 81.116 15.4775 81.6551 15.4775C82.1806 15.4775 82.6456 15.592 83.0499 15.8211C83.4541 16.0502 83.7641 16.3669 83.9797 16.7712C84.2021 17.1688 84.3133 17.6202 84.3133 18.1256ZM83.3632 17.9335C83.3632 17.5831 83.2857 17.2833 83.1307 17.034C82.9757 16.7779 82.7635 16.5859 82.494 16.4579C82.2312 16.3231 81.9381 16.2557 81.6146 16.2557C81.1497 16.2557 80.7522 16.404 80.422 16.7005C80.0986 16.9969 79.9133 17.408 79.8661 17.9335H83.3632ZM85.1837 18.3176C85.1837 17.7516 85.2982 17.2563 85.5273 16.8318C85.7564 16.4006 86.0697 16.0671 86.4673 15.8312C86.8715 15.5954 87.323 15.4775 87.8216 15.4775C88.2529 15.4775 88.6538 15.5786 89.0244 15.7807C89.395 15.9761 89.678 16.2355 89.8734 16.559V13.6279H90.8032V21.1072H89.8734V20.0661C89.6914 20.3963 89.4219 20.6692 89.0648 20.8848C88.7077 21.0937 88.2899 21.1981 87.8115 21.1981C87.3196 21.1981 86.8715 21.0769 86.4673 20.8343C86.0697 20.5917 85.7564 20.2514 85.5273 19.8135C85.2982 19.3755 85.1837 18.8769 85.1837 18.3176ZM89.8734 18.3277C89.8734 17.9099 89.7892 17.5461 89.6207 17.2361C89.4522 16.9262 89.2231 16.6903 88.9334 16.5286C88.6504 16.3602 88.3371 16.276 87.9934 16.276C87.6498 16.276 87.3365 16.3568 87.0535 16.5185C86.7705 16.6802 86.5448 16.9161 86.3763 17.226C86.2078 17.536 86.1236 17.8998 86.1236 18.3176C86.1236 18.7421 86.2078 19.1127 86.3763 19.4294C86.5448 19.7393 86.7705 19.9785 87.0535 20.147C87.3365 20.3087 87.6498 20.3896 87.9934 20.3896C88.3371 20.3896 88.6504 20.3087 88.9334 20.147C89.2231 19.9785 89.4522 19.7393 89.6207 19.4294C89.7892 19.1127 89.8734 18.7455 89.8734 18.3277Z" fill="white"/>
<defs>
<clipPath id="clip0_602_1727">
<rect width="16.1715" height="16.1715" fill="white" transform="translate(30.1072 10.1072)"/>
</clipPath>
</defs>
</svg>
