<svg width="214" height="333" viewBox="0 0 214 333" fill="none" xmlns="http://www.w3.org/2000/svg">
<rect width="214" height="332.42" rx="20" fill="#E4F3F4"/>
<rect x="20" y="20" width="174" height="228.42" rx="9.67976" fill="white"/>
<path d="M58.46 138V131.58H69.98V101.82H69.44L60.32 112.62L55.4 108.48L65.78 96.12H77.84V131.58H87.32V138H58.46ZM106.977 138.72C104.257 138.72 101.897 138.24 99.8966 137.28C97.8966 136.28 96.2366 134.86 94.9166 133.02C93.6366 131.18 92.6766 128.92 92.0366 126.24C91.4366 123.56 91.1366 120.5 91.1366 117.06C91.1366 113.66 91.4366 110.62 92.0366 107.94C92.6766 105.22 93.6366 102.94 94.9166 101.1C96.2366 99.26 97.8966 97.86 99.8966 96.9C101.897 95.9 104.257 95.4 106.977 95.4C112.417 95.4 116.417 97.3 118.977 101.1C121.537 104.9 122.817 110.22 122.817 117.06C122.817 123.9 121.537 129.22 118.977 133.02C116.417 136.82 112.417 138.72 106.977 138.72ZM106.977 132.42C109.857 132.42 111.877 131.4 113.037 129.36C114.237 127.28 114.837 124.42 114.837 120.78V113.34C114.837 109.7 114.237 106.86 113.037 104.82C111.877 102.74 109.857 101.7 106.977 101.7C104.097 101.7 102.057 102.74 100.857 104.82C99.6966 106.86 99.1166 109.7 99.1166 113.34V120.78C99.1166 124.42 99.6966 127.28 100.857 129.36C102.057 131.4 104.097 132.42 106.977 132.42ZM106.977 120.6C105.577 120.6 104.597 120.32 104.037 119.76C103.517 119.2 103.257 118.52 103.257 117.72V116.4C103.257 115.6 103.517 114.92 104.037 114.36C104.597 113.8 105.577 113.52 106.977 113.52C108.377 113.52 109.337 113.8 109.857 114.36C110.417 114.92 110.697 115.6 110.697 116.4V117.72C110.697 118.52 110.417 119.2 109.857 119.76C109.337 120.32 108.377 120.6 106.977 120.6ZM134.913 117.36C132.033 117.36 129.773 116.4 128.133 114.48C126.493 112.56 125.673 109.86 125.673 106.38C125.673 102.9 126.493 100.2 128.133 98.28C129.773 96.36 132.033 95.4 134.913 95.4C137.793 95.4 140.053 96.36 141.693 98.28C143.333 100.2 144.153 102.9 144.153 106.38C144.153 109.86 143.333 112.56 141.693 114.48C140.053 116.4 137.793 117.36 134.913 117.36ZM134.913 112.74C136.193 112.74 137.113 112.3 137.673 111.42C138.273 110.5 138.573 109.28 138.573 107.76V105C138.573 103.48 138.273 102.28 137.673 101.4C137.113 100.48 136.193 100.02 134.913 100.02C133.633 100.02 132.693 100.48 132.093 101.4C131.533 102.28 131.253 103.48 131.253 105V107.76C131.253 109.28 131.533 110.5 132.093 111.42C132.693 112.3 133.633 112.74 134.913 112.74ZM154.473 96.12H160.533L151.293 114.12H145.293L154.473 96.12ZM134.613 120H140.613L131.433 138H125.373L134.613 120ZM150.993 138.72C148.113 138.72 145.853 137.76 144.213 135.84C142.573 133.92 141.753 131.22 141.753 127.74C141.753 124.26 142.573 121.56 144.213 119.64C145.853 117.72 148.113 116.76 150.993 116.76C153.873 116.76 156.133 117.72 157.773 119.64C159.413 121.56 160.233 124.26 160.233 127.74C160.233 131.22 159.413 133.92 157.773 135.84C156.133 137.76 153.873 138.72 150.993 138.72ZM150.993 134.1C152.273 134.1 153.193 133.66 153.753 132.78C154.353 131.86 154.653 130.64 154.653 129.12V126.36C154.653 124.84 154.353 123.64 153.753 122.76C153.193 121.84 152.273 121.38 150.993 121.38C149.713 121.38 148.773 121.84 148.173 122.76C147.613 123.64 147.333 124.84 147.333 126.36V129.12C147.333 130.64 147.613 131.86 148.173 132.78C148.773 133.66 149.713 134.1 150.993 134.1Z" fill="#073335"/>
<path d="M52.8978 169.42L50.9058 166H49.5858V169.42H48.4938V161.056H51.1938C51.8258 161.056 52.3578 161.164 52.7898 161.38C53.2298 161.596 53.5578 161.888 53.7738 162.256C53.9898 162.624 54.0978 163.044 54.0978 163.516C54.0978 164.092 53.9298 164.6 53.5938 165.04C53.2658 165.48 52.7698 165.772 52.1058 165.916L54.2058 169.42H52.8978ZM49.5858 165.124H51.1938C51.7858 165.124 52.2298 164.98 52.5258 164.692C52.8218 164.396 52.9698 164.004 52.9698 163.516C52.9698 163.02 52.8218 162.636 52.5258 162.364C52.2378 162.092 51.7938 161.956 51.1938 161.956H49.5858V165.124ZM61.3145 165.88C61.3145 166.088 61.3025 166.308 61.2785 166.54H56.0225C56.0625 167.188 56.2825 167.696 56.6825 168.064C57.0905 168.424 57.5825 168.604 58.1585 168.604C58.6305 168.604 59.0225 168.496 59.3345 168.28C59.6545 168.056 59.8785 167.76 60.0065 167.392H61.1825C61.0065 168.024 60.6545 168.54 60.1265 168.94C59.5985 169.332 58.9425 169.528 58.1585 169.528C57.5345 169.528 56.9745 169.388 56.4785 169.108C55.9905 168.828 55.6065 168.432 55.3265 167.92C55.0465 167.4 54.9065 166.8 54.9065 166.12C54.9065 165.44 55.0425 164.844 55.3145 164.332C55.5865 163.82 55.9665 163.428 56.4545 163.156C56.9505 162.876 57.5185 162.736 58.1585 162.736C58.7825 162.736 59.3345 162.872 59.8145 163.144C60.2945 163.416 60.6625 163.792 60.9185 164.272C61.1825 164.744 61.3145 165.28 61.3145 165.88ZM60.1865 165.652C60.1865 165.236 60.0945 164.88 59.9105 164.584C59.7265 164.28 59.4745 164.052 59.1545 163.9C58.8425 163.74 58.4945 163.66 58.1105 163.66C57.5585 163.66 57.0865 163.836 56.6945 164.188C56.3105 164.54 56.0905 165.028 56.0345 165.652H60.1865ZM63.608 163.744V167.62C63.608 167.94 63.676 168.168 63.812 168.304C63.948 168.432 64.184 168.496 64.52 168.496H65.324V169.42H64.34C63.732 169.42 63.276 169.28 62.972 169C62.668 168.72 62.516 168.26 62.516 167.62V163.744H61.664V162.844H62.516V161.188H63.608V162.844H65.324V163.744H63.608ZM71.999 162.844V169.42H70.907V168.448C70.699 168.784 70.407 169.048 70.031 169.24C69.663 169.424 69.255 169.516 68.807 169.516C68.295 169.516 67.835 169.412 67.427 169.204C67.019 168.988 66.695 168.668 66.455 168.244C66.223 167.82 66.107 167.304 66.107 166.696V162.844H67.187V166.552C67.187 167.2 67.351 167.7 67.679 168.052C68.007 168.396 68.455 168.568 69.023 168.568C69.607 168.568 70.067 168.388 70.403 168.028C70.739 167.668 70.907 167.144 70.907 166.456V162.844H71.999ZM74.4548 163.912C74.6468 163.536 74.9188 163.244 75.2708 163.036C75.6308 162.828 76.0668 162.724 76.5788 162.724V163.852H76.2908C75.0668 163.852 74.4548 164.516 74.4548 165.844V169.42H73.3628V162.844H74.4548V163.912ZM80.5634 162.724C81.3634 162.724 82.0114 162.968 82.5074 163.456C83.0034 163.936 83.2514 164.632 83.2514 165.544V169.42H82.1714V165.7C82.1714 165.044 82.0074 164.544 81.6794 164.2C81.3514 163.848 80.9034 163.672 80.3354 163.672C79.7594 163.672 79.2994 163.852 78.9554 164.212C78.6194 164.572 78.4514 165.096 78.4514 165.784V169.42H77.3594V162.844H78.4514V163.78C78.6674 163.444 78.9594 163.184 79.3274 163C79.7034 162.816 80.1154 162.724 80.5634 162.724ZM90.1424 169.528C89.5264 169.528 88.9664 169.388 88.4624 169.108C87.9664 168.828 87.5744 168.432 87.2864 167.92C87.0064 167.4 86.8664 166.8 86.8664 166.12C86.8664 165.448 87.0104 164.856 87.2984 164.344C87.5944 163.824 87.9944 163.428 88.4984 163.156C89.0024 162.876 89.5664 162.736 90.1904 162.736C90.8144 162.736 91.3784 162.876 91.8824 163.156C92.3864 163.428 92.7824 163.82 93.0704 164.332C93.3664 164.844 93.5144 165.44 93.5144 166.12C93.5144 166.8 93.3624 167.4 93.0584 167.92C92.7624 168.432 92.3584 168.828 91.8464 169.108C91.3344 169.388 90.7664 169.528 90.1424 169.528ZM90.1424 168.568C90.5344 168.568 90.9024 168.476 91.2464 168.292C91.5904 168.108 91.8664 167.832 92.0744 167.464C92.2904 167.096 92.3984 166.648 92.3984 166.12C92.3984 165.592 92.2944 165.144 92.0864 164.776C91.8784 164.408 91.6064 164.136 91.2704 163.96C90.9344 163.776 90.5704 163.684 90.1784 163.684C89.7784 163.684 89.4104 163.776 89.0744 163.96C88.7464 164.136 88.4824 164.408 88.2824 164.776C88.0824 165.144 87.9824 165.592 87.9824 166.12C87.9824 166.656 88.0784 167.108 88.2704 167.476C88.4704 167.844 88.7344 168.12 89.0624 168.304C89.3904 168.48 89.7504 168.568 90.1424 168.568ZM97.6742 162.724C98.4742 162.724 99.1222 162.968 99.6182 163.456C100.114 163.936 100.362 164.632 100.362 165.544V169.42H99.2822V165.7C99.2822 165.044 99.1182 164.544 98.7902 164.2C98.4622 163.848 98.0142 163.672 97.4462 163.672C96.8702 163.672 96.4102 163.852 96.0662 164.212C95.7302 164.572 95.5622 165.096 95.5622 165.784V169.42H94.4702V162.844H95.5622V163.78C95.7782 163.444 96.0702 163.184 96.4382 163C96.8142 162.816 97.2262 162.724 97.6742 162.724ZM104.949 161.776C104.741 161.776 104.565 161.704 104.421 161.56C104.277 161.416 104.205 161.24 104.205 161.032C104.205 160.824 104.277 160.648 104.421 160.504C104.565 160.36 104.741 160.288 104.949 160.288C105.149 160.288 105.317 160.36 105.453 160.504C105.597 160.648 105.669 160.824 105.669 161.032C105.669 161.24 105.597 161.416 105.453 161.56C105.317 161.704 105.149 161.776 104.949 161.776ZM105.477 162.844V169.42H104.385V162.844H105.477ZM110.062 162.724C110.862 162.724 111.51 162.968 112.006 163.456C112.502 163.936 112.75 164.632 112.75 165.544V169.42H111.67V165.7C111.67 165.044 111.506 164.544 111.178 164.2C110.85 163.848 110.402 163.672 109.834 163.672C109.258 163.672 108.798 163.852 108.454 164.212C108.118 164.572 107.95 165.096 107.95 165.784V169.42H106.858V162.844H107.95V163.78C108.166 163.444 108.458 163.184 108.826 163C109.202 162.816 109.614 162.724 110.062 162.724ZM116.502 168.412L118.542 162.844H119.706L117.126 169.42H115.854L113.274 162.844H114.45L116.502 168.412ZM126.301 165.88C126.301 166.088 126.289 166.308 126.265 166.54H121.009C121.049 167.188 121.269 167.696 121.669 168.064C122.077 168.424 122.569 168.604 123.145 168.604C123.617 168.604 124.009 168.496 124.321 168.28C124.641 168.056 124.865 167.76 124.993 167.392H126.169C125.993 168.024 125.641 168.54 125.113 168.94C124.585 169.332 123.929 169.528 123.145 169.528C122.521 169.528 121.961 169.388 121.465 169.108C120.977 168.828 120.593 168.432 120.313 167.92C120.033 167.4 119.893 166.8 119.893 166.12C119.893 165.44 120.029 164.844 120.301 164.332C120.573 163.82 120.953 163.428 121.441 163.156C121.937 162.876 122.505 162.736 123.145 162.736C123.769 162.736 124.321 162.872 124.801 163.144C125.281 163.416 125.649 163.792 125.905 164.272C126.169 164.744 126.301 165.28 126.301 165.88ZM125.173 165.652C125.173 165.236 125.081 164.88 124.897 164.584C124.713 164.28 124.461 164.052 124.141 163.9C123.829 163.74 123.481 163.66 123.097 163.66C122.545 163.66 122.073 163.836 121.681 164.188C121.297 164.54 121.077 165.028 121.021 165.652H125.173ZM129.59 169.528C129.086 169.528 128.634 169.444 128.234 169.276C127.834 169.1 127.518 168.86 127.286 168.556C127.054 168.244 126.926 167.888 126.902 167.488H128.03C128.062 167.816 128.214 168.084 128.486 168.292C128.766 168.5 129.13 168.604 129.578 168.604C129.994 168.604 130.322 168.512 130.562 168.328C130.802 168.144 130.922 167.912 130.922 167.632C130.922 167.344 130.794 167.132 130.538 166.996C130.282 166.852 129.886 166.712 129.35 166.576C128.862 166.448 128.462 166.32 128.15 166.192C127.846 166.056 127.582 165.86 127.358 165.604C127.142 165.34 127.034 164.996 127.034 164.572C127.034 164.236 127.134 163.928 127.334 163.648C127.534 163.368 127.818 163.148 128.186 162.988C128.554 162.82 128.974 162.736 129.446 162.736C130.174 162.736 130.762 162.92 131.21 163.288C131.658 163.656 131.898 164.16 131.93 164.8H130.838C130.814 164.456 130.674 164.18 130.418 163.972C130.17 163.764 129.834 163.66 129.41 163.66C129.018 163.66 128.706 163.744 128.474 163.912C128.242 164.08 128.126 164.3 128.126 164.572C128.126 164.788 128.194 164.968 128.33 165.112C128.474 165.248 128.65 165.36 128.858 165.448C129.074 165.528 129.37 165.62 129.746 165.724C130.218 165.852 130.602 165.98 130.898 166.108C131.194 166.228 131.446 166.412 131.654 166.66C131.87 166.908 131.982 167.232 131.99 167.632C131.99 167.992 131.89 168.316 131.69 168.604C131.49 168.892 131.206 169.12 130.838 169.288C130.478 169.448 130.062 169.528 129.59 169.528ZM134.384 163.744V167.62C134.384 167.94 134.452 168.168 134.588 168.304C134.724 168.432 134.96 168.496 135.296 168.496H136.1V169.42H135.116C134.508 169.42 134.052 169.28 133.748 169C133.444 168.72 133.292 168.26 133.292 167.62V163.744H132.44V162.844H133.292V161.188H134.384V162.844H136.1V163.744H134.384ZM144.851 162.724C145.363 162.724 145.819 162.832 146.219 163.048C146.619 163.256 146.935 163.572 147.167 163.996C147.399 164.42 147.515 164.936 147.515 165.544V169.42H146.435V165.7C146.435 165.044 146.271 164.544 145.943 164.2C145.623 163.848 145.187 163.672 144.635 163.672C144.067 163.672 143.615 163.856 143.279 164.224C142.943 164.584 142.775 165.108 142.775 165.796V169.42H141.695V165.7C141.695 165.044 141.531 164.544 141.203 164.2C140.883 163.848 140.447 163.672 139.895 163.672C139.327 163.672 138.875 163.856 138.539 164.224C138.203 164.584 138.035 165.108 138.035 165.796V169.42H136.943V162.844H138.035V163.792C138.251 163.448 138.539 163.184 138.899 163C139.267 162.816 139.671 162.724 140.111 162.724C140.663 162.724 141.151 162.848 141.575 163.096C141.999 163.344 142.315 163.708 142.523 164.188C142.707 163.724 143.011 163.364 143.435 163.108C143.859 162.852 144.331 162.724 144.851 162.724ZM154.826 165.88C154.826 166.088 154.814 166.308 154.79 166.54H149.534C149.574 167.188 149.794 167.696 150.194 168.064C150.602 168.424 151.094 168.604 151.67 168.604C152.142 168.604 152.534 168.496 152.846 168.28C153.166 168.056 153.39 167.76 153.518 167.392H154.694C154.518 168.024 154.166 168.54 153.638 168.94C153.11 169.332 152.454 169.528 151.67 169.528C151.046 169.528 150.486 169.388 149.99 169.108C149.502 168.828 149.118 168.432 148.838 167.92C148.558 167.4 148.418 166.8 148.418 166.12C148.418 165.44 148.554 164.844 148.826 164.332C149.098 163.82 149.478 163.428 149.966 163.156C150.462 162.876 151.03 162.736 151.67 162.736C152.294 162.736 152.846 162.872 153.326 163.144C153.806 163.416 154.174 163.792 154.43 164.272C154.694 164.744 154.826 165.28 154.826 165.88ZM153.698 165.652C153.698 165.236 153.606 164.88 153.422 164.584C153.238 164.28 152.986 164.052 152.666 163.9C152.354 163.74 152.006 163.66 151.622 163.66C151.07 163.66 150.598 163.836 150.206 164.188C149.822 164.54 149.602 165.028 149.546 165.652H153.698ZM158.991 162.724C159.791 162.724 160.439 162.968 160.935 163.456C161.431 163.936 161.679 164.632 161.679 165.544V169.42H160.599V165.7C160.599 165.044 160.435 164.544 160.107 164.2C159.779 163.848 159.331 163.672 158.763 163.672C158.187 163.672 157.727 163.852 157.383 164.212C157.047 164.572 156.879 165.096 156.879 165.784V169.42H155.787V162.844H156.879V163.78C157.095 163.444 157.387 163.184 157.755 163C158.131 162.816 158.543 162.724 158.991 162.724ZM164.315 163.744V167.62C164.315 167.94 164.383 168.168 164.519 168.304C164.655 168.432 164.891 168.496 165.227 168.496H166.031V169.42H165.047C164.439 169.42 163.983 169.28 163.679 169C163.375 168.72 163.223 168.26 163.223 167.62V163.744H162.371V162.844H163.223V161.188H164.315V162.844H166.031V163.744H164.315ZM83.239 184.108C83.239 183.436 83.375 182.848 83.647 182.344C83.919 181.832 84.291 181.436 84.763 181.156C85.243 180.876 85.775 180.736 86.359 180.736C86.935 180.736 87.435 180.86 87.859 181.108C88.283 181.356 88.599 181.668 88.807 182.044V180.844H89.911V187.42H88.807V186.196C88.591 186.58 88.267 186.9 87.835 187.156C87.411 187.404 86.915 187.528 86.347 187.528C85.763 187.528 85.235 187.384 84.763 187.096C84.291 186.808 83.919 186.404 83.647 185.884C83.375 185.364 83.239 184.772 83.239 184.108ZM88.807 184.12C88.807 183.624 88.707 183.192 88.507 182.824C88.307 182.456 88.035 182.176 87.691 181.984C87.355 181.784 86.983 181.684 86.575 181.684C86.167 181.684 85.795 181.78 85.459 181.972C85.123 182.164 84.855 182.444 84.655 182.812C84.455 183.18 84.355 183.612 84.355 184.108C84.355 184.612 84.455 185.052 84.655 185.428C84.855 185.796 85.123 186.08 85.459 186.28C85.795 186.472 86.167 186.568 86.575 186.568C86.983 186.568 87.355 186.472 87.691 186.28C88.035 186.08 88.307 185.796 88.507 185.428C88.707 185.052 88.807 184.616 88.807 184.12ZM94.4803 180.724C95.2803 180.724 95.9283 180.968 96.4243 181.456C96.9203 181.936 97.1683 182.632 97.1683 183.544V187.42H96.0883V183.7C96.0883 183.044 95.9243 182.544 95.5963 182.2C95.2683 181.848 94.8203 181.672 94.2523 181.672C93.6763 181.672 93.2163 181.852 92.8723 182.212C92.5363 182.572 92.3683 183.096 92.3683 183.784V187.42H91.2763V180.844H92.3683V181.78C92.5843 181.444 92.8763 181.184 93.2443 181C93.6203 180.816 94.0323 180.724 94.4803 180.724ZM101.676 180.724C102.476 180.724 103.124 180.968 103.62 181.456C104.116 181.936 104.364 182.632 104.364 183.544V187.42H103.284V183.7C103.284 183.044 103.12 182.544 102.792 182.2C102.464 181.848 102.016 181.672 101.448 181.672C100.872 181.672 100.412 181.852 100.068 182.212C99.7321 182.572 99.5641 183.096 99.5641 183.784V187.42H98.4721V180.844H99.5641V181.78C99.7801 181.444 100.072 181.184 100.44 181C100.816 180.816 101.228 180.724 101.676 180.724ZM111.5 180.844V187.42H110.408V186.448C110.2 186.784 109.908 187.048 109.532 187.24C109.164 187.424 108.756 187.516 108.308 187.516C107.796 187.516 107.336 187.412 106.928 187.204C106.52 186.988 106.196 186.668 105.956 186.244C105.724 185.82 105.608 185.304 105.608 184.696V180.844H106.688V184.552C106.688 185.2 106.852 185.7 107.18 186.052C107.508 186.396 107.956 186.568 108.524 186.568C109.108 186.568 109.568 186.388 109.904 186.028C110.24 185.668 110.408 185.144 110.408 184.456V180.844H111.5ZM112.456 184.108C112.456 183.436 112.592 182.848 112.864 182.344C113.136 181.832 113.508 181.436 113.98 181.156C114.46 180.876 114.992 180.736 115.576 180.736C116.152 180.736 116.652 180.86 117.076 181.108C117.5 181.356 117.816 181.668 118.024 182.044V180.844H119.128V187.42H118.024V186.196C117.808 186.58 117.484 186.9 117.052 187.156C116.628 187.404 116.132 187.528 115.564 187.528C114.98 187.528 114.452 187.384 113.98 187.096C113.508 186.808 113.136 186.404 112.864 185.884C112.592 185.364 112.456 184.772 112.456 184.108ZM118.024 184.12C118.024 183.624 117.924 183.192 117.724 182.824C117.524 182.456 117.252 182.176 116.908 181.984C116.572 181.784 116.2 181.684 115.792 181.684C115.384 181.684 115.012 181.78 114.676 181.972C114.34 182.164 114.072 182.444 113.872 182.812C113.672 183.18 113.572 183.612 113.572 184.108C113.572 184.612 113.672 185.052 113.872 185.428C114.072 185.796 114.34 186.08 114.676 186.28C115.012 186.472 115.384 186.568 115.792 186.568C116.2 186.568 116.572 186.472 116.908 186.28C117.252 186.08 117.524 185.796 117.724 185.428C117.924 185.052 118.024 184.616 118.024 184.12ZM121.585 178.54V187.42H120.493V178.54H121.585ZM124.058 178.54V187.42H122.966V178.54H124.058ZM131.103 180.844L127.143 190.516H126.015L127.311 187.348L124.659 180.844H125.871L127.935 186.172L129.975 180.844H131.103Z" fill="#073335"/>
<rect x="20" y="268.42" width="174" height="44" rx="6" fill="#073335"/>
<path d="M81.9605 294.504C81.4005 294.504 80.8965 294.408 80.4485 294.216C80.0005 294.016 79.6485 293.736 79.3925 293.376C79.1365 293.016 79.0085 292.596 79.0085 292.116H80.4725C80.5045 292.476 80.6445 292.772 80.8925 293.004C81.1485 293.236 81.5045 293.352 81.9605 293.352C82.4325 293.352 82.8005 293.24 83.0645 293.016C83.3285 292.784 83.4605 292.488 83.4605 292.128C83.4605 291.848 83.3765 291.62 83.2085 291.444C83.0485 291.268 82.8445 291.132 82.5965 291.036C82.3565 290.94 82.0205 290.836 81.5885 290.724C81.0445 290.58 80.6005 290.436 80.2565 290.292C79.9205 290.14 79.6325 289.908 79.3925 289.596C79.1525 289.284 79.0325 288.868 79.0325 288.348C79.0325 287.868 79.1525 287.448 79.3925 287.088C79.6325 286.728 79.9685 286.452 80.4005 286.26C80.8325 286.068 81.3325 285.972 81.9005 285.972C82.7085 285.972 83.3685 286.176 83.8805 286.584C84.4005 286.984 84.6885 287.536 84.7445 288.24H83.2325C83.2085 287.936 83.0645 287.676 82.8005 287.46C82.5365 287.244 82.1885 287.136 81.7565 287.136C81.3645 287.136 81.0445 287.236 80.7965 287.436C80.5485 287.636 80.4245 287.924 80.4245 288.3C80.4245 288.556 80.5005 288.768 80.6525 288.936C80.8125 289.096 81.0125 289.224 81.2525 289.32C81.4925 289.416 81.8205 289.52 82.2365 289.632C82.7885 289.784 83.2365 289.936 83.5805 290.088C83.9325 290.24 84.2285 290.476 84.4685 290.796C84.7165 291.108 84.8405 291.528 84.8405 292.056C84.8405 292.48 84.7245 292.88 84.4925 293.256C84.2685 293.632 83.9365 293.936 83.4965 294.168C83.0645 294.392 82.5525 294.504 81.9605 294.504ZM88.0507 288.924V292.584C88.0507 292.832 88.1067 293.012 88.2187 293.124C88.3387 293.228 88.5387 293.28 88.8187 293.28H89.6587V294.42H88.5787C87.9627 294.42 87.4907 294.276 87.1627 293.988C86.8347 293.7 86.6707 293.232 86.6707 292.584V288.924H85.8907V287.808H86.6707V286.164H88.0507V287.808H89.6587V288.924H88.0507ZM90.4635 291.084C90.4635 290.42 90.5995 289.832 90.8715 289.32C91.1515 288.808 91.5275 288.412 91.9995 288.132C92.4795 287.844 93.0075 287.7 93.5835 287.7C94.1035 287.7 94.5555 287.804 94.9395 288.012C95.3315 288.212 95.6435 288.464 95.8755 288.768V287.808H97.2555V294.42H95.8755V293.436C95.6435 293.748 95.3275 294.008 94.9275 294.216C94.5275 294.424 94.0715 294.528 93.5595 294.528C92.9915 294.528 92.4715 294.384 91.9995 294.096C91.5275 293.8 91.1515 293.392 90.8715 292.872C90.5995 292.344 90.4635 291.748 90.4635 291.084ZM95.8755 291.108C95.8755 290.652 95.7795 290.256 95.5875 289.92C95.4035 289.584 95.1595 289.328 94.8555 289.152C94.5515 288.976 94.2235 288.888 93.8715 288.888C93.5195 288.888 93.1915 288.976 92.8875 289.152C92.5835 289.32 92.3355 289.572 92.1435 289.908C91.9595 290.236 91.8675 290.628 91.8675 291.084C91.8675 291.54 91.9595 291.94 92.1435 292.284C92.3355 292.628 92.5835 292.892 92.8875 293.076C93.1995 293.252 93.5275 293.34 93.8715 293.34C94.2235 293.34 94.5515 293.252 94.8555 293.076C95.1595 292.9 95.4035 292.644 95.5875 292.308C95.7795 291.964 95.8755 291.564 95.8755 291.108ZM100.42 288.768C100.62 288.432 100.884 288.172 101.212 287.988C101.548 287.796 101.944 287.7 102.4 287.7V289.116H102.052C101.516 289.116 101.108 289.252 100.828 289.524C100.556 289.796 100.42 290.268 100.42 290.94V294.42H99.0523V287.808H100.42V288.768ZM105.254 288.924V292.584C105.254 292.832 105.31 293.012 105.422 293.124C105.542 293.228 105.742 293.28 106.022 293.28H106.862V294.42H105.782C105.166 294.42 104.694 294.276 104.366 293.988C104.038 293.7 103.874 293.232 103.874 292.584V288.924H103.094V287.808H103.874V286.164H105.254V287.808H106.862V288.924H105.254ZM114.576 287.7C115.096 287.7 115.56 287.808 115.968 288.024C116.384 288.24 116.708 288.56 116.94 288.984C117.172 289.408 117.288 289.92 117.288 290.52V294.42H115.932V290.724C115.932 290.132 115.784 289.68 115.488 289.368C115.192 289.048 114.788 288.888 114.276 288.888C113.764 288.888 113.356 289.048 113.052 289.368C112.756 289.68 112.608 290.132 112.608 290.724V294.42H111.24V287.808H112.608V288.564C112.832 288.292 113.116 288.08 113.46 287.928C113.812 287.776 114.184 287.7 114.576 287.7ZM121.901 294.528C121.277 294.528 120.713 294.388 120.209 294.108C119.705 293.82 119.309 293.42 119.021 292.908C118.733 292.388 118.589 291.788 118.589 291.108C118.589 290.436 118.737 289.84 119.033 289.32C119.329 288.8 119.733 288.4 120.245 288.12C120.757 287.84 121.329 287.7 121.961 287.7C122.593 287.7 123.165 287.84 123.677 288.12C124.189 288.4 124.593 288.8 124.889 289.32C125.185 289.84 125.333 290.436 125.333 291.108C125.333 291.78 125.181 292.376 124.877 292.896C124.573 293.416 124.157 293.82 123.629 294.108C123.109 294.388 122.533 294.528 121.901 294.528ZM121.901 293.34C122.253 293.34 122.581 293.256 122.885 293.088C123.197 292.92 123.449 292.668 123.641 292.332C123.833 291.996 123.929 291.588 123.929 291.108C123.929 290.628 123.837 290.224 123.653 289.896C123.469 289.56 123.225 289.308 122.921 289.14C122.617 288.972 122.289 288.888 121.937 288.888C121.585 288.888 121.257 288.972 120.953 289.14C120.657 289.308 120.421 289.56 120.245 289.896C120.069 290.224 119.981 290.628 119.981 291.108C119.981 291.82 120.161 292.372 120.521 292.764C120.889 293.148 121.349 293.34 121.901 293.34ZM135.565 287.808L133.513 294.42H132.073L130.741 289.536L129.409 294.42H127.969L125.905 287.808H127.297L128.677 293.124L130.081 287.808H131.509L132.853 293.1L134.221 287.808H135.565Z" fill="#E4F3F4"/>
</svg>
