<svg width="20" height="20" viewBox="0 0 20 20" fill="none" xmlns="http://www.w3.org/2000/svg">
<path fill-rule="evenodd" clip-rule="evenodd" d="M3.33322 2.50004C2.84831 2.50004 2.54115 2.87834 2.57788 3.24882C3.31955 10.7295 9.27042 16.6804 16.7511 17.422C17.1216 17.4588 17.4999 17.1516 17.4999 16.6667V13.7013C17.4999 13.3426 17.2704 13.0242 16.9301 12.9107L14.0469 11.9497C13.7474 11.8499 13.4173 11.9278 13.1941 12.151L12.7326 12.6125C12.1804 13.1647 11.3008 13.2703 10.6345 12.8144C9.05851 11.7364 8.14072 10.8246 7.16189 9.35081C6.71932 8.68448 6.83523 7.81952 7.37747 7.27729L7.84894 6.80581C8.07213 6.58262 8.15007 6.25248 8.05025 5.95303L7.08919 3.06985C6.97576 2.72957 6.65731 2.50004 6.29862 2.50004H3.33322ZM0.919348 3.41326C0.77445 1.95178 1.97718 0.833374 3.33322 0.833374H6.29862C7.3747 0.833374 8.33005 1.52195 8.67033 2.5428L9.63139 5.42599C9.93084 6.32432 9.69703 7.31474 9.02745 7.98432L8.56335 8.44843C9.40478 9.71141 10.1618 10.47 11.5599 11.4282L12.0156 10.9725C12.6852 10.3029 13.6756 10.0691 14.5739 10.3685L17.4571 11.3296C18.478 11.6699 19.1666 12.6252 19.1666 13.7013V16.6667C19.1666 18.0227 18.0482 19.2255 16.5867 19.0806C8.31555 18.2605 1.73938 11.6844 0.919348 3.41326Z" fill="#282828" fill-opacity="0.6"/>
</svg>
